<svg xmlns="http://www.w3.org/2000/svg" width="412" height="329" fill="none">
  <defs/>
  <path fill="#fff" fill-rule="evenodd" d="M156.759 20.5332c.091 2.9027-2.372 1.2783-3.484.5981.535-2.1733 1.721-.3639 3.485-.5981h-.001z" clip-rule="evenodd"/>
  <path fill="#18181B" fill-rule="evenodd" d="M179.404 56.4648c5.744 4.6568 8.719 12.1671 12.774 18.5647-2.174 2.749-3.176 6.7048-5.806 8.9825-5.122-4.8985-7.562-12.5624-12.192-17.9665 1.46-3.4755 3.456-6.414 5.22-9.5807" clip-rule="evenodd"/>
  <path fill="#fff" fill-rule="evenodd" d="M70.2529 123.537h1.1612c8.6897 5.335-1.0238 22.746 6.9674 28.147 2.7852-3.716 2.2096-10.895 3.4836-16.169 6.6839 2.743 11.0424 36.44 8.1285 41.92 3.8192 4.995 13.0624 13.596 13.7454 21.323 1.233 13.931-.674 23.864-.972 37.964-3.9623-2.1-5.6108-6.588-8.7084-9.582.2936-4.09 2.9457-5.745 3.4837-9.582-.162-1.257-1.5502.868-2.3224-.598 2.3267-10.046-3.1887-14.877-2.9024-24.554-1.1424 1.417-.6623 4.507-1.7425 5.989-7.3795-6.138-2.0058-23.821-8.1285-29.343.1012-.009-10.4409 23.59-13.9347 23.356-2.2038-13.642 14.3757-19.44 6.3875-32.338-1.2755-1.571-1.9291 1.857-3.4837 0-4.7432-13.142 3.9464-24.47-1.1627-36.529" clip-rule="evenodd"/>
  <path fill="#18181B" fill-rule="evenodd" d="M296.103 154.68c2.506.135-1.048 2.92 0 5.389.026 2.17 4.121.14 3.484 2.994-1.099-.664-2.744-.764-4.065-1.198-.232-2.834.173-4.997.578-7.19M265.908 158.871h4.064c2.003 4.122 3.019 9.262 4.065 14.372-2.618-4.878-6.407-8.562-8.127-14.364M273.457 160.064c2.1 1.228 1.958 4.769 2.323 7.785-1.605-1.745-2.299-4.43-2.328-7.786l.005.001zM276.942 160.661c4.536-.088 6.898 2.069 11.031 2.396 1.071 2.887.393 7.579.58 11.378-2.196-.868-1.115 1.645-2.903 1.198-.616-.752-4.66-10.581-4.645-10.78-2.218-.493-.684 2.887-2.902 2.395-.766-1.805-.39-4.773-1.157-6.593M291.446 170.252c-.487-1.693-.674-3.696-1.161-5.389 3.08-2.312 5.119 4.952 1.157 5.385l.004.004zM296.103 166.657c1.213-.253 1.537.411 2.322.599.271 1.874-.504 2.672-2.322 2.395-1.099-1.148.347-1.089 0-2.998" clip-rule="evenodd"/>
  <path fill="#fff" fill-rule="evenodd" d="M109.152 181.022c-3.494-1.187-4.692-4.741-5.807-8.384 3.607-1.506 7.276 4.669 5.807 8.383v.001z" clip-rule="evenodd"/>
  <path fill="#18181B" fill-rule="evenodd" d="M317.578 177.442c-.747 1.026-1.201 2.355-2.903 2.395.116-1.7 1.013-2.565 2.907-2.401l-.004.006z" clip-rule="evenodd"/>
  <path fill="#fff" fill-rule="evenodd" d="M48.771 179.829c8.0403 4.457 7.3259 12.479 9.2897 19.763 2.8677 10.639 14.4553 15.007 17.9982 25.151-17.6337-2.297-24.4203-30.488-27.2879-44.912M251.39 191.806c-.67 11.293-17.567 8.717-24.966 4.791 5.974.204 12.451 1.429 17.419-.6-3.305-4.376-13.075-2.083-16.257-6.587 1.907.187 4.754 1.385 6.387 0-.515-1.464-3.242-.648-2.904-2.995 2.822 1.373 3.305-1.245 6.968 0-.63-3.02-4.327-1.57-6.386-5.989 8.271-1.446 12.985 7.667 19.739 11.382" clip-rule="evenodd"/>
  <path fill="#18181B" fill-rule="evenodd" d="M323.969 182.23c-.464 2.515-3.556 2.321-5.225 3.593 1.056-1.909 3.196-2.7 5.221-3.595l.004.002zM328.033 185.825c-1.244 2.51-3.309 4.173-6.966 4.193 1.865-1.88 3.268-4.222 6.97-4.192l-.004-.001z" clip-rule="evenodd"/>
  <path fill="#fff" fill-rule="evenodd" d="M211.333 186.421c3.88.19 8.27-.146 9.29 2.995-3.876-.194-7.057-1.118-9.284-2.998l-.006.003z" clip-rule="evenodd"/>
  <path fill="#18181B" fill-rule="evenodd" d="M339.066 196.594c-4.669.973-8.086 3.235-13.934 2.994 3.384-1.924 11.467-9.398 13.94-2.998l-.006.004zM345.444 201.994c-4.806 1.57-11.132.927-15.676 1.197 3.962-1.864 13.449-8.353 15.676-1.193v-.004z" clip-rule="evenodd"/>
  <path fill="#fff" fill-rule="evenodd" d="M278.678 198.995c1.7.84 1.786 3.349 1.742 5.989 1.125-.835.866-3.099 1.741-4.193 1.305.252.016 3.178 1.162 3.594 1.249-.509 2.053-1.476 1.742-3.594.236 3.1 4.429 2.205 6.386-.598-.201 3.786-2.51 5.395-3.484 8.385.716 1.819 1.996-.649 3.484 0-.587 4.813-1.406 7.216-1.741 11.977-1.445.093-1.798-.941-2.904-1.197.117 2.274 2.441 2.271 2.323 4.791-1.156-.604-2.48-1.036-2.903-2.396-1.702.507.347 1.927 0 2.994-.836-.336-1.415-.934-1.742-1.798-1.073.091-.356 2.028-1.161 2.396-1.363-.191-1.299-1.854-2.323-2.396-.938.828-1.429 2.118-3.484 1.798 1.004-2.96-1.185-2.018 0-4.791-1.865-.127-1.414 2.136-2.322 2.993-1.701.157-1.785-1.354-3.484-1.197.08-1.116.382-2.002 1.162-2.396.096-1.299-2.06-.271-2.904-.6.721-1.251 1.689-2.25 2.904-2.993-1.872-2.08.19-3.324-.582-4.791 1.562-1.956 3.245 1.004 4.645 1.197.898-1.946-2.622-4.467-3.484-6.588.87-1.699 3.198-1.891 2.323-5.389 1.019.544 1.061 2.098 1.742 2.993.911-.85 1.23-2.326 1.172-4.176l-.01-.014zm1.181 16.78c1.87-.267 3.372-.915 2.904-3.594-2.646-2.297-5.495 2.059-2.907 3.595l.003-.001z" clip-rule="evenodd"/>
  <path fill="#18181B" fill-rule="evenodd" d="M357.634 214.568c-11.631 1.888-22.565.204-34.255-1.797.09-5.267 20.766-8.183 23.804-8.983 4.295 2.774 7.665 6.474 10.455 10.784" clip-rule="evenodd"/>
  <path fill="#fff" fill-rule="evenodd" d="M30.7729 224.742c1.9855-5.539 8.2515-6.66 12.1921-10.18-.7115-2.262-4.0895-1.773-6.9673-1.798 8.2847-12.172 12.5579 15.737-5.2248 11.978z" clip-rule="evenodd"/>
  <path fill="#18181B" fill-rule="evenodd" d="M282.741 212.166c.469 2.679-1.032 3.327-2.904 3.594-2.574-1.537.275-5.892 2.907-3.595l-.003.001zM361.119 218.163c-2.679 1.922-10.025 1.906-13.353 1.197 2.936-1.387 10.383-3.758 13.348-1.193l.005-.004z" clip-rule="evenodd"/>
  <path fill="#fff" fill-rule="evenodd" d="M203.208 245.699c.001 2.199-2.034 2.296-2.903 3.593-2.708-.999-5.024-2.404-6.967-4.193 1.489-8.815 8.098-6.145 9.877.597l-.007.003zm-7.542-.6c1.555.349 2.956-2.462 1.741-2.993-.173 1.417-2.01 1.118-1.735 2.998l-.006-.005zm4.064 2.402c.247-1.143 1.658-1.084 1.161-2.994h-1.743c-.159 1.402-1.229 2.581.593 2.998" clip-rule="evenodd"/>
  <path fill="#18181B" fill-rule="evenodd" d="M197.394 242.119c1.215.531-.186 3.344-1.741 2.994-.275-1.895 1.562-1.596 1.735-2.998l.006.004zM199.143 244.506h1.743c.497 1.911-.914 1.852-1.161 2.993-1.837-.417-.767-1.596-.593-2.998M313.514 266.073c1.44 1.51 3.008 2.886 3.484 5.391-1.533-1.417-3.211-2.67-3.485-5.385l.001-.006z" clip-rule="evenodd"/>
  <path fill="#fff" fill-rule="evenodd" d="M168.949.17258h5.224c.213 1.01877-.452 1.12915-1.161 1.19777-.097 1.2992 2.059.27147 2.904.59963-.713 3.12494-1.288 1.95999-.581 5.38922-1.866-1.23805-4.845-5.428-6.392-7.18662" clip-rule="evenodd"/>
  <path fill="#18181B" fill-rule="evenodd" d="M95.7977.17257h52.2513c7.665 0 15.842-.73238 23.3.82039 2.523.52504 1.423 4.66575 3.987 6.36618-.708-3.42921-.132-2.26426.581-5.38918-.843-.32815-3.001.69956-2.904-.59963 1.313-.12529 6.169-1.92566 5.806 2.99515 1.005-1.60049 1.701-.09994 2.323-2.39552 2.766 3.24127 3.155 10.39954 3.483 14.37164-1.102 1.1277-3.384-2.1091-4.645.5996 10.717 1.5409 18.856 10.3354 20.902 22.756-9.528-6.7525-9.184-14.7595-20.902-19.7623-.603 2.2583 3.532 2.6923 1.162 4.791-.321 2.6476-2.368-2.0062-5.225-.5981-1.699 4.1705 3.75 4.0855 2.322 5.9888-.623 3.9945-2.387-.9561-5.226 0-2.651 3.3263 3.848 3.4486 2.323 5.3892-.485 2.8147-3.717-1.6975-5.807.5981.651 6.0366 6.969 11.0887 11.031 15.5709-4.783.7115-6.819 9.2942-9.871 13.7735 1.568 4.372 4.457 7.3805 6.388 11.378-2.82-1.0903-4.903-8.1143-8.709-10.1802-3.836-.3654-5.952 1.0471-9.869.5981-.486-2.8907-1.202-5.5473-2.323-7.7847-2.721 1.7825-3.939 5.1192-5.224 8.3844 10.907 5.7173 18.554 14.7967 22.642 27.547-6.16-9.415-10.708-20.4947-22.061-24.5534-1.951 2.051 3.015 2.051 2.321 4.7911-1.909 2.0181-3.896-2.0182-5.806 0-2.409 2.9638 3.832 3.0056 1.742 5.3892-.289 3.101-3.58-1.9138-5.224.5996-1.326 3.3934 4.147 2.8683 2.322 4.7895-.574 3.3949-3.687-1.8018-5.226.5997-1.083 3.1428 4.264 2.7475 2.322 4.791-.574 3.3949-3.687-1.8033-5.224.5982-2.184 2.8385 3.061 2.1538 2.322 5.3891-2.107 1.8377-4.215-2.1553-5.806.5982-.693 2.7419 4.273 2.7399 2.322 4.7909-.778 3.605-3.687-1.803-5.224.6-2.025 3.24 2.331 2.525 2.322 5.389-2.293 2.03-4.4-1.963-5.806.598-.739 3.235 4.506 2.551 2.322 5.389-1.55 1.742-3.24-2.188-5.224 0 6.808 8.347 17.552 12.637 23.224 22.158-11.995-6.415-19.073-17.209-33.094-20.36-2.516 2.574-.426 8.678 1.161 10.779-1.366.98-2.632-3.25-5.806-2.395-.823 11.581 12.933 16.077 6.968 29.943-3.961-2.104-5.773-6.423-11.031-7.187-1.192 15.565 13.768 20.345 13.934 33.536-7.635-.393-16.177-21.102-22.6426-25.153-2.5003 6.715 13.2146 25.966 15.6016 33.613 2.365 7.578 2.44 14.309 3.454 22.273 1.31 10.289-7.146 12.331-8.605 21.967 3.958-3.902 7.209-8.535 13.935-9.582-.992 2.97-2.44 5.468-4.065 7.784 1.19 1.844 4.011-1.47 4.645 1.198 3.259-.231 2.104-5.015 5.806-4.789 1.144 1.615.345 5.232.581 7.784 2.697 1.177 3.064-4.673 6.967-4.193 1.043 7.153-.886 13.934-4.644 19.165-16.941-4.384-32.9728-10.233-47.9846-19.505-12.4104-7.664-34.3519-10.34-40.8463 8.125 1.4389 2.109 5.9738 1.025 8.7084 1.798.4555 2.465-.8923 3.072-.5814 5.389 7.8668-2.388 17.4066.353 24.9653-1.798 2.0998 1.428 3.8409 3.225 5.2248 5.389 6.1487-.062 12.2917.074 18.4328.406 9.393.634 16.432 4.038 25.181 6.425 8.019 2.186 15.601-3.392 22.367-6.838 10.765-5.48 21.489-3.156 32.719-5.981-2.431 6.079-9.217 8.326-12.286 13.873-5.446 9.843 9.745 16.308 15.991 18.589 15.882 5.803 43.944 16.996 9.943 19.101-7.492.464-15.97 17.788-26.421 19.7-23.865 4.369-36.392-18.723-56.317-26.35-17.7635.845-75.0764 23.197-87.0876-2.395-.6811 2.927-.2111 6.863.5799 10.78 4.7504 8.114 44.4658 3.794 52.6767 3.17 20.8266-1.586 38.245-15.037 54.15 5.214-18.008 9.364-40.0014 6.926-59.4022 10.14-10.6548 1.766-19.2633 9.038-29.4265 10.82-14.2975 2.509-28.6398-1.884-42.9633 0V131.925c8.95419-8.223 67.4919-36.4864 58.0576-52.1005 14.0459-4.5793 22.4231-15.3681-.8647-.9129 2.0144-4.2541-1.838 15.8409.4049 11.7106 5.0512 1.156-9.3649-9.2763-6.3874-13.6467 2.642-3.8782 3.9319-8.4977 6.4365-12.4564 3.6543-5.774 7.7063-1.1754 12.4075-5.1953 6.2182-5.3161 5.0338-17.1789 6.3801-24.4937C78.9609 20.9387 92.6076 13.4956 95.7673.16511l.0304.00746zM162.541 15.1364c-3.607 1.238-3.026-1.0471-5.807-1.7974.025.8249-.273 1.3156-.581 1.7974 2.835.7204 4.83 1.8541 6.392 0h-.004zm-9.294 5.9873c1.113.6802 3.574 2.3031 3.483-.5981-1.764.2342-2.95-1.5752-3.485.5981h.002zM71.3862 160.057c1.5546 1.857 2.2082-1.571 3.4837 0 7.9896 12.898-8.5913 18.697-6.3874 32.338 3.4937.234 14.0357-23.365 13.9345-23.356 6.1228 5.522.7491 23.205 8.1285 29.343 1.0788-1.483.6001-4.57 1.7425-5.989-.2863 9.676 5.2305 14.508 2.9023 24.554.7722 1.466 2.1605-.658 2.3225.598-.538 3.836-3.1901 5.492-3.4837 9.582 3.0976 2.993 4.7461 7.482 8.7079 9.582.298-14.1 2.206-24.033.972-37.965-.682-7.728-9.9257-16.328-13.7448-21.322 2.9138-5.48-1.4447-39.177-8.1285-41.92-1.274 5.274-.6985 12.455-3.4836 16.169-7.9911-5.401 1.7222-22.811-6.9673-28.147h-1.1612c5.1119 12.075-3.5776 23.403 1.1626 36.545v-.012zm31.9328 12.586c1.115 3.641 2.312 7.197 5.806 8.384 1.469-3.714-2.2-9.889-5.806-8.383v-.001zm-48.1883 34.143c8.3396 4.571 9.5645 16.483 20.9004 17.965-2.8127-8.057-10.8587-12.561-15.3604-19.432-5.3288-8.133-1.5907-19.753-11.9273-25.482 1.4547 7.309 8.9556 13.499 6.3873 26.953v-.004zm-16.2569 13.772c12.1645-7.048 1.2465-13.883-2.9023-7.785 2.8777.025 6.2558-.465 6.9673 1.797-3.9406 3.521-10.208 4.642-12.192 10.181 2.5624.566 5.164-2.461 8.127-4.177" clip-rule="evenodd"/>
  <path fill="#fff" fill-rule="evenodd" d="M156.181 15.1439c.308-.4818.606-.9725.581-1.7974 2.781.7503 2.199 3.034 5.806 1.7974-1.562 1.8541-3.557.7205-6.392 0" clip-rule="evenodd"/>
  <path fill="#18181B" fill-rule="evenodd" d="M289.132 156.47c.517-1.613 1.621 1.036 1.162 2.395 1.028-.137 2.906.603 2.322-1.198 1.26-.101.263 2.125.58 2.994-1.728-.213-2.946-.954-4.065-1.796-.795-1.387 1.489-2.267 0-2.416M331.518 245.698c1.841-1.664 3.001 2.468 5.806 1.798-2.873-4.421-8.874-5.619-12.773-8.983 9.238 1.853 18.133 9.242 27.288 13.176.902-.971-2.088-3.007-3.484-3.594 4.39-.727 9.304 3.173 14.514 3.594-9.487-6.184-22.346-8.89-31.351-15.571.253-.737.744-1.229 1.743-1.198-3.15-3.138-8.93-3.565-12.774-5.989.893-1.791 2.58-.622 4.065 0 1.977-.405-2.558-1.99-.579-2.395 5.95 1.447 11.541 3.266 17.416 4.789-.5-3.675-5.321-2.895-6.967-5.389 5.139-1.102 11.728 1.472 16.257 2.995-.959-3.608-10.218-3.829-14.514-5.989 8.154-1.57 17.827-1.573 27.287-1.797 22.282 28.721 45.377 59.79 48.188 106.596H54.5862c9.7437-8.62 26.3882-8.168 38.3185-7.186 12.6833-2.054 30.3863-5.427 42.9633-11.978 13.751 1.513 16.302 16.453 33.358 11.314 6.715-2.021 26.101-10.05 27.022-18.5 7.352-.458 27.758.052 22.707-13.699-4.13-11.241-22.584-10.961-31.415-15.646 1.875-8.356 6.629-15.192 16.837-13.175-1.071-2.29-3.465-3.213-4.645-5.391-5.721 4.681-11.316 9.488-14.515 16.769-6.104-1.689-10.344-5.3-13.933-9.582 5.553-6.79 17.141-10.072 16.256-21.558-11.367-1.852-23.852 5.271-37.737 4.791-2.365-9.645-7.867-19.493-18.101-19.199-12.409.357-4.846-20.504-6.285-29.908 34.43-23.093 79.202-44.025 137.599-36.531.749 4.218 3.195 6.684 2.902 11.977-1.925 1.03-2.519-.361-3.484-1.797-1.361.792-1.755 2.581-3.483 2.994-2.381-4.732-6.177-8.001-9.29-11.976-1.174 3.99 3.499 7.308 1.742 10.779-2.229-.293-2.086-3.038-4.644-2.993.089 2.175 2.355 6.596 2.902 8.982-1.028.137-2.908-.602-2.323 1.198-2.18-.944-3.446-2.833-5.806-3.593.417 9.151 7.743 11.176 12.192 16.169 2.852-1.65 5.759-3.243 9.87-3.594 2.694 2.776.322 8.018-1.743 9.583.719 2.853 3.241 3.843 5.225 5.389.47-.114.579-.6 1.161-.598 2.262-.603.09-2.062.58-4.192 2.937 2.227 3.04-2.306 6.388-.599.62-2.238-1.442-1.707-1.162-3.594 1.734.094 4.541 3.168 4.065-1.197.981.985.721 3.25 1.741 4.192 1.541-2.404 2.553-5.351 4.065-7.784.365 1.82-.743 5.158.58 5.989 2.509-2.402 3.135-6.747 4.645-10.181 1.932 2.618-1.108 5.225-1.161 7.785.515 1.436 1.767-1.302 1.742-2.394 1.293.251.455 3.177 0 3.593.825.053 1.645.099 1.742-.598 1.621 1.137-.107 3.834-.58 4.791 1.453.102 1.817-.92 2.322-1.797.357 2.698.249 2.101 3.484 1.198-.271 2.116-2.603 2.106-2.323 4.791.746 1.114 2.975-1.285 3.484-2.396 1.43 1.906-2.846 3.031-2.902 5.391.938 1.828 2.793-1.992 4.063 0-.127 2.662-3.657 1.817-4.645 3.593.634 4.636 10.607 3.112 10.451 5.989-1.262 1.293-5.23-.206-5.806 1.797 2.944 2.552 9.659 1.216 11.612 4.791h-5.224c1.362 3.386 5.181 4.238 8.128 5.989-2.418.289-14.818.416-15.676 0-.274 1.881.723 2.448 1.743 2.995-1.077 1.173-3.919-2.265-2.323 1.796-1.226-.531-1.716-1.823-3.483-1.796.238 2.548 2.959 2.537 2.902 5.389-3.061-.095-4.77 3.099-3.483 4.192-2.849 1.326-3.046-5.23-5.225-6.587-1.689 5.397 3.021 12.374 2.322 16.767-3.316-3.966-2.393-12.303-5.806-16.169-1.455 1.493-1.099 4.855-1.741 7.187-1.943-.791 1.109-6.734-1.742-6.589-2.102 1.428-1.085 6.068-2.903 7.785-1.776-2.86-.982-6.108-1.742-10.78-2.191 1.334-2.534 4.573-4.065 6.588-1.572-1.467 1.771-2.929 1.161-5.39-1.449-2.217-1.222 2.276-3.484 1.198-.237-1.443 1.06-1.303.582-2.994-1.394-.418-3.833 3.217-5.227 4.791-1.449-.415 1.078-1.598.582-2.995-2.538-3.297-5.453 1.899-8.129 0 2.441-4.271 7.059-6.293 9.87-10.18-3.536-.159-7.819 4.04-9.288.599.399-2.184 3.548-1.53 4.063-3.593-2.019-1.848-4.757.656-7.547 0 1.588-1.927 1.543-2.672 4.645-3.593.087-1.871-.887-2.605-1.743-4.791 1.543-.006 3.316.225 4.065-.599.099-1.299-2.059-.271-2.902-.599-.223.699 7.735-4.051 6.967-4.192-1.547-2.395-3.846-4.018-5.806-5.988-7.884 3.447-12.838 9.913-16.255 17.965 1.278 1.664 4.137-.084 5.806 0-2.119 3.005-5.874 4.321-9.87 5.39 2.074 4.658 6.821-1.127 11.031 0-.826 1.744-3.439 1.644-5.226 2.396-.819 1.635 1.459 2.388-1.161 3.593.335 1.25 2.192-.864 3.483-.598-3.262 4.818-11.206 4.81-13.933 10.18 3.067.558 6.652-3.511 12.192-2.395-6.613 5.884-17.289 10.503-20.902 17.965 6.278-3.906 12.837-7.52 21.482-8.983-2.108 4.412-6.486 6.486-8.128 11.378 1.234.451 4.192-2.443 5.806-3.593-4.113 9.533-12.729 19.607-18.58 29.343 12.069-5.992 17.219-26.481 30.772-30.542-2.306 7.402-7.078 12.264-7.548 21.559 4.812-2.627 7.148-12.986 11.613-17.965.961 3.201-1.69 7.831-1.743 11.976 1.145-1.412 2.012-3.116 2.902-4.791.846.913-.551 4.593 0 7.187 1.076 1.832.871-2.639 2.903-1.796-.972.993-.462 3.516-.58 5.389.783-.589 1.159-1.597 1.742-2.395 3.381 4.789-1.877 13.59.58 17.366 4.108-8.936 4.019-22.204 6.388-32.937 2.644-.733 2.277 1.642 4.644 1.198.689 8.074.88 16.658 1.741 24.553 2.06-.671.405-5.173 1.743-6.589.863.907.936 2.629 1.161 4.193 1.047-2.713 1.232-6.315 1.161-10.18 2.307 8.001 2.2 18.49 5.225 25.751 1.255-10.132-.165-19.659-.58-30.542 1.578-.001 2.719 2.518 3.484 0 1.349 1.803 2.059 4.263 2.902 6.589 1.915-.347.833-2.262.582-3.594 5.158 12.845 11.172 24.807 16.255 37.728-.321-8.853-5.272-18.115-6.966-27.548 4.34 2.511 5.095 8.719 8.709 11.978-4.369-9.069-7.308-19.61-10.451-29.942 10.474 11.554 18.831 25.291 28.449 37.727-2.174-5.747-7.535-13.387-11.031-19.763 1.269-1.075 2.429 3.058 4.065 3.594-3.482-9.584-12.684-18.457-17.998-28.147 1.229-1.988 1.686 1.798 3.483 1.198-.477-3.301-2.621-4.881-4.065-7.187 6.584 2.393 13.173 9.967 20.321 13.774.814-.212.05-1.055-.58-1.198 8.893 2.406 16.471 11.356 26.126 14.971-5.087-6.731-17.567-11.024-22.642-19.762 5.454 2.558 9.486 6.584 15.094 8.982-8.558-8.339-20.475-13.215-27.868-22.755 10.058 4.397 17.521 11.47 27.868 15.569-1.258-3.476-8.171-6.325-12.22-8.935l.019-.048zm-99.886-65.225c2.06 4.419 5.757 2.969 6.386 5.989-3.663-1.245-4.146 1.372-6.967 0-.338 2.346 2.389 1.529 2.904 2.995-1.633 1.385-4.48.187-6.388 0 3.183 4.504 12.953 2.211 16.257 6.587-4.967 2.027-11.444.804-17.418.6 7.398 3.926 24.296 6.502 24.966-4.791-6.754-3.729-11.468-12.843-19.74-11.396v.016zm-11.033 8.963c-1.02-3.141-5.41-2.804-9.29-2.995 2.227 1.895 5.408 2.819 9.284 2.998l.006-.003zm56.903 13.783c-.679-.897-.723-2.449-1.742-2.994.875 3.498-1.453 3.691-2.323 5.389.862 2.122 4.382 4.641 3.484 6.589-1.4-.194-3.083-3.153-4.645-1.198.772 1.468-1.29 2.712.582 4.791-1.215.744-2.183 1.742-2.904 2.994.843.328 3-.7 2.904.599-.78.394-1.082 1.28-1.162 2.396 1.7-.157 1.783 1.354 3.484 1.198.908-.859.457-3.122 2.322-2.994-1.185 2.773 1.004 1.832 0 4.791 2.054.322 2.544-.968 3.484-1.797 1.024.541.96 2.204 2.322 2.395.806-.368.089-2.304 1.162-2.395.325.862.905 1.462 1.742 1.797.347-1.066-1.702-2.486 0-2.994.422 1.361 1.747 1.792 2.903 2.396.12-2.518-2.206-2.516-2.323-4.791 1.106.256 1.459 1.29 2.904 1.198.335-4.76 1.154-7.164 1.741-11.978-1.487-.649-2.768 1.82-3.484 0 .974-2.988 3.283-4.599 3.484-8.384-1.957 2.802-6.15 3.697-6.386.598.311 2.118-.493 3.085-1.743 3.593-1.145-.416.144-3.341-1.161-3.593-.875 1.092-.616 3.356-1.741 4.193.044-2.64-.042-5.148-1.742-5.989.043 1.865-.275 3.341-1.172 4.206l.01-.016zm-74.903 38.336c.232-1.629-2.724-5.03-1.742-3.594-.318 2.119.477 3.088 1.735 3.595l.007-.001zm-9.298 3.595c1.943 1.788 4.259 3.193 6.967 4.192.871-1.299 2.905-1.396 2.903-3.593-1.779-6.742-8.388-9.412-9.877-.596" clip-rule="evenodd"/>
  <path fill="#fff" fill-rule="evenodd" d="M200.879 237.913c-.982-1.435 1.974 1.964 1.743 3.593-1.258-.507-2.054-1.477-1.75-3.595l.007.002z" clip-rule="evenodd"/>
</svg>
