<svg width="545" height="685" fill="none" xmlns="http://www.w3.org/2000/svg"><path d="M349.562 683.571c1.698-2.901-19.776-16.433-22.131-13.947-3.25 3.432-12.816 2.393-21.63-2.349-7.927-4.264-8.257-4.809-9.261-15.28-1.984-20.708-.212-33.194 7.426-52.32.867-2.171 1.801-23.273 2.076-46.892l.498-42.943h-23.844c-14.652.001-23.845-.759-23.845-1.972 0-1.823 13.13-2.8 39.186-2.916l10.199-.046 2.244-8.164c1.234-4.49 3.252-10.153 4.486-12.586 1.769-3.49 1.722-5.449-.225-9.288-2.111-4.166-2.004-5.716.744-10.773 1.766-3.248 3.211-6.995 3.211-8.327 0-2.924-6.19-11.14-22.696-30.12-15.159-17.432-35.279-46.52-35.279-51.003 0-3.735-4.312-8.929-7.413-8.929-1.138 0-4.084 1.393-6.545 3.096-4.223 2.921-4.605 2.837-6.76-1.481-1.257-2.517-2.852-5.021-3.546-5.564-.695-.543-3.304-4.985-5.799-9.871-2.494-4.887-5.587-10.059-6.873-11.494-1.286-1.434-2.338-3.433-2.338-4.442 0-4.541-7.14-1.86-40.337 15.145-9.327 4.779-17.671 8.688-18.54 8.688-.87 0-4.81 1.504-8.755 3.341-9.445 4.399-9.368 9.525.427 28.715.962 1.885 1.762 6.772 1.777 10.858.015 4.087 1.245 9.652 2.732 12.366 5.031 9.183 5.271 10.267 2.656 12.016-1.436.959-3.548 1.758-4.693 1.775-3.234.047-12.227-10.221-14.24-16.258-3.05-9.151-7.949-6.784-19.197 9.273-5.665 8.086-10.3 15.193-10.3 15.794 0 .601 1.195 1.092 2.654 1.092 1.46 0 5.036 1.351 7.948 3.001 2.912 1.651 7.66 3.87 10.551 4.932 2.89 1.062 4.809 2.693 4.264 3.624-.545.931 1.151 1.261 3.769.733 3.893-.786 4.563-1.791 3.677-5.517-.596-2.506-.231-5.112.81-5.792 6.604-4.309 16.681 11.249 13.309 20.548-1.023 2.819-2.753 9.828-3.846 15.576-1.093 5.748-4.092 14.625-6.665 19.727-2.973 5.898-4.688 12.519-4.706 18.177-.035 11.039-1.925 14.372-7.663 13.515-3.742-.559-4.553-1.944-5.012-8.564l-.548-7.897-15.349.637c-9.88.41-14.682-.042-13.478-1.266 1.029-1.047 9.197-2.282 18.152-2.747l16.282-.843-1.107 8.525c-.916 7.054-.579 8.526 1.952 8.526 2.425 0 3.06-2.048 3.06-9.871 0-8.596-.49-9.872-3.787-9.872-6.75 0-10.334-19.432-5.742-31.134 1.727-4.403 1.839-7.084.405-9.688-1.71-3.103-1.991-2.76-2.04 2.488-.032 3.348-.678 6.742-1.436 7.543-.758.8-1.39 2.905-1.403 4.676-.02 2.685-1.734 3.085-10.309 2.401-5.657-.452-17.65-.778-26.65-.725-14.658.085-16.364-.282-16.364-3.527 0-3.878 2.994-5.002 4.088-1.536.363 1.148 2.03 1.532 3.707.853 3.353-1.358 5.653-14.32 2.865-16.14-.94-.612-.566-1.939.83-2.947 1.896-1.371 1.592-1.677-1.204-1.213-2.525.419-4.276 2.905-5.39 7.65l-1.651 7.03-10.01-.876c-14.646-1.282-51.885 11.682-58.792 20.467-3.522 4.481-4.623 3.387-4.826-4.794-.184-7.418.124-7.793 11.252-13.701 18.22-9.672 24.038-11.684 38.092-13.174 11.901-1.262 13.307-1.039 14.106 2.236.793 3.245.912 3.204 1.106-.374.363-6.716 13.357-9.506 34.684-7.448 9.843.95 17.898 1.03 17.898.177s-.847-1.551-1.882-1.551c-1.036 0-3.697-2.202-5.913-4.893-2.801-3.4-5.264-4.566-8.075-3.822-6.762 1.792-8.932-3.255-4.948-11.506l3.418-7.078-3.924 2.297c-2.158 1.264-4.344 2.742-4.858 3.285-6.015 6.349-15.002 5.325-18.787-2.142-1.948-3.843-1.428-5.085 4.553-10.869 3.714-3.592 6.753-6.932 6.753-7.423 0-.491-2.92-.805-6.489-.699-12.194.365-11.14-3.322 3.843-13.441 10.981-7.415 11.996-7.845 11.996-5.076 0 .997-4.418 4.531-9.818 7.854-8.16 5.022-9.029 6.048-5.143 6.074 2.572.018 7.115-1.312 10.096-2.953 2.982-1.642 5.822-2.562 6.311-2.046 1.017 1.074-6.141 10.852-15.03 20.529-5.528 6.018-5.672 6.472-1.66 5.234 3.736-1.152 4.221-.785 3.246 2.46-1.324 4.403 3.734 5.528 5.314 1.182.526-1.448 2.245-2.633 3.82-2.633 1.576 0 2.864-.71 2.864-1.577 0-.868 2.86-2.67 6.356-4.005 4.281-1.634 6.749-4.076 7.558-7.481.96-4.04 1.723-4.598 3.797-2.781 2.191 1.92 2.043 3.262-.949 8.615-1.949 3.487-5.328 8.363-7.51 10.835-4.348 4.927-3.681 10.864 1.007 8.964 1.606-.65 5.843-5.83 9.414-11.511 10.807-17.188 16.817-22.777 24.492-22.777 5.422 0 6.505.619 5.572 3.184-1.312 3.61 5.044 15.601 9.151 17.264 3.825 1.55 5.197-1.757 1.921-4.628-1.505-1.318-3.216-5.639-3.803-9.601-1.659-11.197-4.958-22.433-8.492-28.924-2.839-5.215-2.94-7.103-.844-15.794 1.309-5.429 2.935-13.967 3.613-18.972l1.231-9.101-9.362-1.954c-5.149-1.075-8.921-1.2-8.381-.277 1.947 3.324-2.476 1.587-5.784-2.272-1.862-2.172-4.998-3.949-6.969-3.949s-4.847-1.332-6.39-2.961c-5.141-5.428-6.776-3.478-5.38 6.416.727 5.158 2.218 10.528 3.314 11.932 1.095 1.404 2.068 8.326 2.162 15.382.154 11.51.596 12.942 4.303 13.928 4.554 1.212 9.176 6.078 7.477 7.871-.594.628-3.006-.282-5.358-2.022-5.712-4.223-9.641-3.985-13.771.833-1.884 2.197-4.135 3.246-5.003 2.33-2.12-2.238-43.157 5.045-52.933 9.394-2.057.915-9.21 3.717-15.896 6.227-6.686 2.51-15.858 6.641-20.383 9.178-5.082 2.851-8.893 3.912-9.97 2.776-1.075-1.137.461-2.869 4.02-4.532 6.13-2.865 7.594-5.677 2.956-5.677-1.543 0-2.806.941-2.806 2.091 0 1.15-.841 1.542-1.87.871-1.028-.671-1.87-2.034-1.87-3.029 0-1.867 15.077-9.805 18.624-9.805 1.1 0 3.46-.809 5.246-1.799 7.87-4.361 21.674-8.172 42.652-11.777 12.415-2.134 27.01-5.412 32.432-7.284l9.859-3.404-1.159-8.104c-.637-4.458-2.36-11.659-3.829-16.002-3.748-11.079-3.682-26.435.12-27.975 1.704-.69 2.589-2.677 2.091-4.691-1.474-5.947 2.403-40.042 5.299-46.605 1.51-3.422 2.745-6.772 2.745-7.444 0-.671 1.976-4.535 4.391-8.586 2.416-4.05 7.522-13.494 11.347-20.986l6.955-13.621-6.134-14.019c-5.785-13.223-6.138-15.309-6.203-36.724-.059-18.941.625-24.593 4.125-34.096 2.308-6.265 4.022-12.04 3.811-12.833-.212-.793.524-3.219 1.636-5.391 1.112-2.171 2.591-7.28 3.287-11.352.697-4.072 2.07-7.404 3.052-7.404.982 0 1.785-1.599 1.785-3.554 0-1.954.975-4.582 2.165-5.839 1.64-1.73 1.557-3.059-.342-5.475-1.47-1.87-2.846-9.992-3.325-19.629-.708-14.238-.244-17.652 3.463-25.487 6.217-13.142 17.092-23.88 26.092-25.763.514-.108 2.037-.934 3.384-1.836 1.348-.902 8.108-1.677 15.023-1.723 13.139-.087 19.882 2.429 31.499 11.75 4.794 3.847 6.688 4.37 9.693 2.671 3.319-1.875 4.788-.53 13.211 12.091 10.039 15.042 11.411 19.995 6.365 22.976-2.799 1.654-2.565 2.809 2.317 11.45 2.986 5.287 6.28 12.278 7.32 15.535 1.809 5.668 2.413 5.95 13.976 6.522 13.911.69 19.108 4.266 42.15 29.007 13.74 14.754 34.698 32.586 38.299 32.586 1.163 0 5.645 1.682 9.96 3.738 4.315 2.057 9.459 4.056 11.431 4.443 1.972.387 3.965 1.908 4.429 3.379 1.129 3.579-9.258 1.234-17.21-3.885-3.172-2.041-6.781-3.715-8.021-3.719-5.291-.018-26.607-17.624-42.44-35.052-7.152-7.873-13.907-14.3-15.012-14.283-1.43.022-1.431.449-.002 1.481 3.353 2.424 4.708 8.36 1.908 8.36-1.382 0-2.995-2.443-3.585-5.429-1.47-7.441-9.783-16.288-15.304-16.288h-4.536l5.412 8.466c2.976 4.656 5.986 10.884 6.689 13.838.703 2.956 2.026 5.862 2.94 6.458 2.255 1.471 2.111 4.801-.207 4.801-1.028 0-1.87-1.385-1.87-3.078 0-1.693-.882-2.502-1.961-1.798-1.326.865-1.204 2.241.376 4.251 1.928 2.453 1.58 3.574-1.996 6.421-3.912 3.115-4.203 4.438-3.005 13.634.73 5.602 1.757 10.185 2.283 10.185.525 0 4.696-2.665 9.269-5.923 4.572-3.258 9.063-5.923 9.979-5.923 3.441 0 3.977-4.287 1.113-8.902-3.299-5.316-4.002-14.79-1.096-14.79 1.028 0 1.87 2.169 1.87 4.819 0 2.651.748 5.308 1.663 5.905.914.596 2.243 3.527 2.953 6.513.71 2.985 1.875 5.881 2.588 6.435 2.587 2.007 7.757 11.798 7.757 14.689 0 5.519 6.948 7.577 16.993 5.034 5.06-1.282 9.669-3.13 10.24-4.107 1.341-2.29 4.56-2.304 4.56-.019 0 2.603-16.038 10.089-21.613 10.089-4.147 0-4.635.621-3.488 4.435 2.317 7.709 6.005 8.974 22.904 7.862 12.998-.857 15.631-.552 14.91 1.722-.657 2.074-4.448 2.707-15.21 2.539-12.933-.201-14.335.145-14.335 3.545 0 10.271 19.696 19.384 41.899 19.384 6.785 0 12.335.793 12.335 1.763 0 3.599 5.806 3.954 9.028.553 2.551-2.693 3.427-7.196 3.739-19.205l.407-15.687-7.522-3.773c-4.137-2.075-7.522-4.571-7.522-5.546 0-.975-.841-1.224-1.87-.553-1.029.671-1.87-.094-1.87-1.701 0-2.285 1.936-1.828 8.883 2.097 10.074 5.691 44.368 17.802 55.638 19.648 4.114.674 8.35 1.942 9.413 2.817 1.063.876 3.167.768 4.676-.239 1.508-1.007 8.709-1.845 16.001-1.861 12.449-.029 13.394-.344 15.472-5.16 1.487-3.445 3.176-4.74 5.144-3.942 1.612.653 5.5-.371 8.639-2.275 3.928-2.381 5.945-2.757 6.467-1.203.417 1.242 2.401 1.805 4.409 1.251 2.751-.76 3.65-.002 3.65 3.073 0 2.244 1.406 4.911 3.125 5.927 2.885 1.704 2.849 2.28-.468 7.502-3.955 6.228-3.992 6.244-21.358 9.674-18.754 3.704-22.397 5.036-24.36 8.909-1.892 3.732 1.626 7.29 13.326 13.479 3.461 1.831 4.907 4.204 5.016 8.23.218 8.117-5.225 9.28-13.995 2.989-7.389-5.3-11.78-6.428-11.78-3.024 0 1.966-2.945.524-16.832-8.241-6.223-3.927-7.565-4.022-27.227-1.919-25.088 2.683-37.655 2.814-39.065.406-.581-.993 0-2.258 1.293-2.811 4.807-2.057-3.098-4.994-17.197-6.388-7.765-.767-18.673-3.05-24.242-5.072-5.569-2.022-10.522-3.258-11.007-2.746-.485.512.555 3.245 2.31 6.073 1.99 3.206 3.024 8.246 2.746 13.388-.712 13.171 2.621 20.188 12.439 26.191 3.262 1.993 9.733 11.737 10.046 15.126.075.814-1.044 1.48-2.486 1.48-1.442 0-3.501-2.663-4.576-5.917-1.075-3.255-4.131-6.965-6.79-8.244-4.196-2.018-5.194-1.787-7.536 1.743-1.485 2.239-4.927 4.66-7.649 5.381-4.357 1.154-4.832 2.068-3.976 7.635.534 3.479 3.305 10.088 6.158 14.687l5.186 8.363 6.35-5.113c8.209-6.61 10.769-4.094 2.891 2.841-5.333 4.695-5.712 5.675-3.428 8.869 2.456 3.436 2.621 3.415 3.795-.493.676-2.247 1.873-4.085 2.661-4.085 3.693 0 3.206 3.036-1.831 11.42-3.005 5.003-5.491 11.366-5.523 14.139-.055 4.591-.28 4.736-2.523 1.618-1.355-1.883-3.011-2.846-3.681-2.139-2.259 2.385-1.24 4.695 2.76 6.257 3.125 1.221 4.143 3.589 4.751 11.051.965 11.859 11.756 34.403 20.225 42.252 3.422 3.173 9.619 7.351 13.772 9.285 6.737 3.137 7.439 4.104 6.518 8.969-.947 4.999-.511 5.509 5.252 6.134 3.457.376 10.072-.44 14.701-1.811 9.943-2.947 18.564-3.193 22.389-.639 3.61 2.41.85 3.418-12.509 4.567-9.772.842-16.347 4.296-14.424 7.579 1.868 3.192 12.831 1.694 21.883-2.989 4.908-2.539 9.317-3.945 9.798-3.123 1.985 3.39-9.791 9.787-23.654 12.849-13.259 2.929-16.901 1.183-15.288-7.331.834-4.403.55-5.763-.994-4.756-1.189.776-2.162 3.083-2.162 5.126 0 2.044-.915 4.313-2.033 5.042-1.118.73-1.652 2.864-1.187 4.744.481 1.942-.659 4.409-2.642 5.717-5.216 3.438-4.243 8.617 3.016 16.044 6.147 6.291 6.694 6.474 9.965 3.349 3.675-3.511 9.713-4.482 9.713-1.563 0 .96-1.822 2.247-4.048 2.862-12.063 3.33 15.041 12.355 28.426 9.465 7.322-1.581 12.611-8.565 16.747-22.114 1.466-4.806 3.187-9.182 3.823-9.725 2.943-2.511 11.441-36.046 10.324-40.742-.662-2.789-4.652-9.89-8.864-15.78-7.787-10.888-8.553-17.432-.991-8.464 11.277 13.373 13.498 18.306 13.298 29.53-.107 6.018-1.494 14.014-3.081 17.77-1.588 3.755-6.066 15.268-9.952 25.584-3.885 10.315-7.759 19.052-8.607 19.414-.848.362-1.542 2.252-1.542 4.2 0 1.949-1.263 4.649-2.806 6.001-2.139 1.874-2.805 1.894-2.805.084 0-1.606-1.801-1.955-5.573-1.08-6.585 1.527-25.402-2.138-31.297-6.095-2.278-1.53-5.347-2.781-6.819-2.781-1.473 0-5.29-3.141-8.482-6.979-6.741-8.105-6.717-8.169-2.845 7.606 3.948 16.084 1.68 36.915-5.89 54.098-1.539 3.494-4.116 12.379-5.725 19.743-1.61 7.364-3.652 15.167-4.538 17.339-.887 2.171-2.543 7.811-3.682 12.533-2.054 8.522-2.016 8.634 5.065 15.053 3.924 3.557 9.54 11.244 12.478 17.081 6.383 12.68 10.492 17.631 22.134 26.672 12.79 9.933 29.564 10.476 29.564.957 0-8.319-11.931-28.235-16.432-27.428-2.248.403-3.387-1.73-4.454-8.343-.788-4.887-2.818-13.604-4.511-19.372-4.579-15.607-2.941-31.729 4.956-48.742 3.528-7.602 7.045-14.117 7.817-14.478.771-.362 1.402-1.533 1.402-2.601 0-3.966 14.117-27.269 16.542-27.305 1.728-.026.9 2.899-2.643 9.34-2.838 5.158-5.653 9.823-6.256 10.367-1.282 1.156-5.932 10.136-13.715 26.484-6.931 14.562-8.651 30.705-4.683 43.984 1.56 5.22 3.422 12.147 4.139 15.393.716 3.247 1.915 6.357 2.662 6.911 3.722 2.756 15.176 20.779 15.176 23.879 0 1.951.841 4.097 1.87 4.768 1.028.671 1.87 5.045 1.87 9.719 0 11.399-6.742 18.909-16.976 18.909-3.914 0-7.636-.888-8.272-1.974-.635-1.086-2.789-1.975-4.785-1.975-1.997 0-3.63-.888-3.63-1.974 0-1.086-1.5-1.974-3.334-1.974-4.463 0-20.384-16.796-24.231-25.562-1.693-3.858-6.002-10.84-9.575-15.517l-6.497-8.502-2.494 6.261c-1.371 3.444-2.493 12.073-2.493 19.175 0 10.897.766 13.975 4.909 19.709 4.274 5.916 4.456 6.706 1.403 6.103-8.065-1.591-13.003-26.559-8.373-42.339.923-3.149 3.148-12.832 4.944-21.519 3.235-15.654 7-28.383 10.365-35.045 1.571-3.11.632-3.455-9.401-3.455-16.172 0-42.486-7.943-45.957-13.873-.619-1.057-2.458-1.921-4.087-1.921-2.653 0-2.864 5.726-2.021 55.088.931 54.536.988 55.18 5.718 64.113 2.627 4.963 5.337 11.713 6.02 15 .684 3.287 2.37 5.976 3.746 5.976s8.728 3.886 16.339 8.636c17.764 11.087 19.974 11.767 37.901 11.655 14.368-.09 25.248-2.661 25.248-5.968 0-.863-5.682-5.271-12.627-9.795-13.172-8.581-24.415-19.389-22.391-21.525.647-.683 5.621 2.861 11.052 7.877 5.432 5.016 10.484 9.12 11.227 9.12 2.527 0 15.235 9.936 17.959 14.041 2.308 3.48 2.333 4.832.164 9.109-4.989 9.842-9.743 11.369-36.672 11.784-14.286.22-24.468-.37-23.874-1.384l.002.001zm54.887-8.672c6.101-6.44 4.502-8.067-3.63-3.695-4.581 2.463-10.866 3.429-22.277 3.424-13.63 0-17.498-.814-27.118-5.663-6.172-3.11-11.643-6.202-12.157-6.87-1.628-2.112-13.291-8.126-15.759-8.126-1.302 0-4.81-1.229-7.797-2.732-2.987-1.503-7.813-3.314-10.725-4.026-4.364-1.067-5.184-.695-4.671 2.122.405 2.218 4.231 4.553 10.905 6.657 10.49 3.305 21.102 8.833 34.785 18.12 9.596 6.513 14.179 7.336 36.102 6.487 15.899-.616 18.049-1.165 22.343-5.698h-.001zm-80.146-9.083c0-1.086-1.514-1.975-3.366-1.975-1.851 0-4.166-.819-5.143-1.82-2.09-2.142-15.803-5.077-15.803-3.382 0 .637 3.156 2.918 7.014 5.068 7.488 4.174 17.299 5.369 17.299 2.109h-.001zm-6.738-19.414c.529-.904-1.492-6.457-4.491-12.339-4.127-8.095-5.517-13.576-5.715-22.541-.261-11.777-.272-11.8-1.953-3.949-.93 4.344-2.461 9.674-3.403 11.846-5.519 12.719-2.857 24.679 5.492 24.679 1.923 0 4.017.888 4.653 1.974 1.405 2.401 4.108 2.566 5.417.33zm113.45-18.16c5.851-3.306 4.219-4.862-5.295-5.052-6.242-.125-11.41-1.81-17.288-5.637-10.487-6.828-25.428-23.453-26.993-30.037-1.74-7.316-14.151-20.871-16.903-18.46-1.615 1.415-.16 4.266 5.432 10.647 4.201 4.793 9.29 12.137 11.31 16.319 6.362 13.173 13.541 21.491 22.85 26.472 4.956 2.653 9.223 5.267 9.483 5.81.946 1.979 13.872 1.934 17.404-.062zm-61.07-109.606c1.708-1.803 2.627-5.457 2.244-8.925-.356-3.23.086-6.35.982-6.935s1.629-5.061 1.629-9.948c0-5.962.677-8.443 2.059-7.541 1.141.744 1.598 3.772 1.026 6.793-.568 2.998-.502 6.011.146 6.695 1.531 1.616 7.742-23.526 7.882-31.903.107-6.339-4.385-27.271-7.512-35.014-.877-2.172-4.612-13.722-8.299-25.667-3.687-11.944-7.452-23.494-8.366-25.665-.914-2.172-2.202-6.17-2.863-8.885s-2.586-8.045-4.279-11.846c-2.88-6.467-3.121-6.606-3.758-2.176-.374 2.604-.389 8.601-.033 13.327.448 5.946-.076 8.592-1.704 8.592-1.752 0-2.351-5.8-2.351-22.768 0-16.217-.842-24.88-2.927-30.108-2.79-6.996-3.053-7.161-5.61-3.508-1.476 2.108-2.684 4.935-2.684 6.283 0 1.348-1.599 2.987-3.554 3.642-3.632 1.217-6.721 9.16-5.976 15.363.513 4.277-3.269 4.583-4.793.388-1.41-3.879 4.133-17.453 10.958-26.831 6.409-8.808 6.455-9.588.56-9.588-2.572 0-4.681.667-4.687 1.481-.014 1.584-8.026 7.02-18.69 12.68-6.846 3.634-18.702 4.84-18.702 1.902 0-.938 3.895-2.269 8.656-2.958 5.564-.805 11.946-3.747 17.863-8.235 5.064-3.841 11.726-7.515 14.805-8.165l5.598-1.182-4.162-4.094c-2.797-2.751-4.41-3.311-4.915-1.71-.769 2.434-6.052 3.413-6.052 1.121 0-.695 1.473-2.412 3.273-3.816 2.622-2.045 2.808-3.05.935-5.054-1.286-1.377-2.338-3.739-2.338-5.251 0-1.512-1.683-5.008-3.74-7.769-2.057-2.761-3.74-6.677-3.74-8.702 0-2.026-.659-3.683-1.464-3.683-.805 0-10.621 4.803-21.814 10.672-11.193 5.87-21.467 10.22-22.833 9.667-5.533-2.241-4.183 5.564 3.014 17.431 4.195 6.916 8.132 14.13 8.749 16.03.617 1.9 1.865 3.455 2.773 3.455.909 0 1.653 1.041 1.653 2.312 0 1.272 1.162 3.715 2.584 5.43 3.831 4.622 5.609 12.001 2.891 12.001-1.241 0-6.324 2.642-11.296 5.872-4.972 3.23-11.174 6.437-13.784 7.129-2.609.691-5.232 2.091-5.829 3.111-2.939 5.021 13.633 30.639 43.593 67.389 17.844 21.887 19.459 25.682 14.883 34.958-2.596 5.262-.998 9.695 6.741 18.7 3.713 4.32 3.623 9.133-.195 10.476-1.589.558-2.283-.455-1.917-2.798.63-4.036-1.461-8.609-3.936-8.609-2.15 0-5.683 11.18-5.683 17.984 0 3.514 1.885 7.396 5.143 10.59 4.455 4.367 5.42 4.641 7.219 2.054 1.142-1.643 3.327-2.987 4.855-2.987 7.577 0 22.798-12.44 25.97-21.224.882-2.444 2.466-4.443 3.52-4.443 7.303 0-8.314 20.509-22.396 29.411l-6.545 4.138h5.968c3.282 0 6.487-.881 7.123-1.967.635-1.086 2.789-1.974 4.786-1.974 1.996 0 3.629.888 3.629 1.974 0 1.086-1.633 1.974-3.629 1.974-1.997 0-4.151.889-4.786 1.975-2.012 3.436 20.822 2.415 24.131-1.079l.001.008zm-42.449-41.908c-4.394-5.125-1.802-7.422 11.435-10.13 9.126-1.866 12.43-1.884 14.494-.075 4.55 3.986 2.983 5.476-4.626 4.399-6.205-.879-7.939-.258-11.558 4.136-5.042 6.122-5.816 6.254-9.746 1.67h.001zm8.031-3.621c0-.427-1.262-.776-2.805-.776-1.543 0-2.805.861-2.805 1.912 0 1.052 1.262 1.401 2.805.776 1.543-.625 2.805-1.485 2.805-1.912zm7.185-20.542c-12.771-2.306-32.535-15.335-28.97-19.098.654-.692 2.668.119 4.474 1.801 5.566 5.181 20.827 11.554 30.591 12.775 5.567.696 9.018 2.039 8.606 3.347-.897 2.842-4.066 3.095-14.701 1.175zm-76.38-88.824c0-1.086.842-1.975 1.871-1.975 1.028 0 1.87.889 1.87 1.975s-.842 1.974-1.87 1.974c-1.029 0-1.871-.888-1.871-1.974zm49.74-56.947c-.647-1.105-.265-2.604.849-3.331 2.875-1.876 4.73.693 2.33 3.228-1.343 1.417-2.389 1.451-3.179.103zm-169.427 186.95c0-.918-2.946-1.669-6.546-1.669-7.166 0-8.167 1.955-3.518 6.863 2.79 2.945 3.304 2.932 6.546-.165 1.935-1.849 3.518-4.112 3.518-5.029zm4.693-16.97c1.744-6.243 3.993-13.704 4.997-16.578 1.367-3.915 1.072-6.765-1.175-11.353-1.65-3.369-3.87-6.126-4.933-6.126-1.063 0-1.383.939-.711 2.087 2.097 3.583-.879 11.73-4.309 11.796-6.77.132-9.583 4.87-10.891 18.352l-1.279 13.175h15.13l3.171-11.353zm-7.498-12.339c-.747-1.275-.516-3.207.512-4.293 1.247-1.316 2.323-1.201 3.228.344.746 1.275.516 3.207-.513 4.293-1.247 1.316-2.323 1.201-3.227-.344zm-127.17 13.82c.636-1.086-.527-1.974-2.584-1.974-2.058 0-4.26.888-4.897 1.974-.635 1.086.528 1.975 2.585 1.975s4.26-.889 4.896-1.975zm85.253-9.871c.23-2.715.23-7.157.001-9.872-.303-3.59-1.1-2.247-2.923 4.926-2.466 9.702-2.038 14.781.972 11.534.843-.909 1.721-3.874 1.95-6.589v.001zm8.065 4.277a667.934 667.934 0 01-.467-6.368c-.433-6.276-4.021-2.398-4.021 4.346 0 3.899.811 5.686 2.338 5.148 1.285-.452 2.253-1.859 2.15-3.126zm8.603-3.29c0-4.826-.846-6.91-2.805-6.91s-2.805 2.084-2.805 6.91c0 4.826.846 6.91 2.805 6.91s2.805-2.084 2.805-6.91zm5.821-5.504c-1.527-1.612-2.041-.122-1.933 5.603.146 7.711.169 7.736 2.081 2.196 1.372-3.976 1.329-6.24-.148-7.798v-.001zm-99.784 8.154c1.64-1.731 2.825-1.708 4.883.096 1.555 1.362 3.173 1.605 3.781.566.584-.998 3.754-2.383 7.043-3.078 5.663-1.196 5.79-1.41 2.382-4.04-1.98-1.528-4.443-2.066-5.474-1.195-1.032.871-4.553 2.187-7.824 2.925-3.272.738-6.952 2.618-8.178 4.177-2.649 3.37.267 3.843 3.387.549zm69.852-4.25c.737-2.91.572-5.792-.366-6.405-3.06-1.996-5.446 1.203-5.446 7.299 0 7.309 3.885 6.711 5.812-.894zm-18.903-8.388c0-1.565-.842-2.845-1.87-2.845-1.03 0-1.87 1.829-1.87 4.065 0 2.236.84 3.516 1.87 2.845 1.028-.671 1.87-2.5 1.87-4.065zm43.014-.871c0-1.086-1.312-1.974-2.916-1.974-1.604 0-2.396.888-1.76 1.974.636 1.086 1.948 1.975 2.916 1.975s1.76-.889 1.76-1.975zm7.48 0c0-1.086-.842-1.974-1.87-1.974-1.029 0-1.87.888-1.87 1.974 0 1.086.841 1.975 1.87 1.975 1.028 0 1.87-.889 1.87-1.975zm-30.858-1.974c.636-1.086-.206-1.974-1.87-1.974-1.665 0-2.506.888-1.87 1.974.635 1.086 1.477 1.974 1.87 1.974s1.234-.888 1.87-1.974zm40.208-1.781c0-.98-2.365-2.652-5.256-3.716s-6.717-3.477-8.504-5.364c-1.787-1.886-3.7-2.953-4.251-2.372-1.166 1.232 4.797 7.875 9.853 10.976 4.289 2.631 8.159 2.857 8.159.476h-.001zm254.065-41.031c2.909-5.839 2.701-10.194-.657-13.738-1.543-1.629-2.805-5.04-2.805-7.581 0-3.519-2-5.64-8.405-8.914-4.623-2.362-8.881-5.107-9.461-6.099-.581-.992-1.786-1.803-2.677-1.803s.261 5.108 2.561 11.352c2.301 6.244 6.126 17.778 8.501 25.631 4.286 14.171 4.343 14.246 7.556 9.872 1.781-2.424 4.205-6.348 5.387-8.72zm15.24-2.597a1.984 1.984 0 00-1.981-1.975c-1.089 0-1.46.889-.824 1.975.635 1.085 1.527 1.974 1.98 1.974.454 0 .825-.889.825-1.974zM19.417 397.386c1.513-1.011 2.265-2.351 1.67-2.978-1.473-1.555-7.226.922-7.226 3.112 0 2.25 2.06 2.2 5.556-.134zm9.405-6.001c0-1.085-.842-1.974-1.87-1.974-1.029 0-1.87.889-1.87 1.974 0 1.086.841 1.975 1.87 1.975 1.028 0 1.87-.889 1.87-1.975zm8.403-1.951c.655-1.119-.096-1.45-1.76-.776-3.24 1.312-3.833 2.727-1.143 2.727.968 0 2.274-.878 2.903-1.951zm8.428-2.984c0-1.629-.841-2.962-1.87-2.962-1.028 0-1.87 1.333-1.87 2.962 0 1.628.842 2.961 1.87 2.961 1.029 0 1.87-1.333 1.87-2.961zm8.336-2.825c.592-1.011.309-2.339-.629-2.951-.937-.611-2.187.216-2.777 1.838-1.162 3.199 1.648 4.117 3.406 1.113zm53.38-11.798c0-.984-1.683-1.325-3.74-.757-2.058.568-3.74 1.373-3.74 1.789 0 .417 1.682.757 3.74.757 2.057 0 3.74-.805 3.74-1.789zm139.327-8.082c.636-1.086 2.452-1.974 4.036-1.974 8.179 0 19.531-9.817 14.08-12.175-.837-.362-8.529-13.097-17.094-28.299-8.566-15.202-16.519-28.732-17.675-30.066-2.113-2.44-3.244-2.031-17.009 6.147-8.697 5.168-8.687 5.14-4.242 11.677 5.196 7.638 8.167 12.838 10.661 18.658 1.047 2.443 2.767 4.442 3.821 4.442 1.054 0 1.916 1.195 1.916 2.656 0 1.46 1.683 4.263 3.741 6.229 2.057 1.965 3.74 4.269 3.74 5.12 0 2.386 10.119 19.426 11.578 19.497.711.034 1.813-.826 2.448-1.912h-.001zm-80.494-9.872c1.584 0 2.879-.983 2.879-2.185 0-1.275-1.364-1.629-3.272-.849-1.8.735-5.798 1.858-8.884 2.496-5.314 1.098-8.323 3.608-8.387 6.995-.016.836 3.304-.274 7.377-2.468 4.074-2.194 8.703-3.989 10.286-3.989h.001zm112.88-5.32c3.788-2.926 7.618-5.963 8.51-6.747.893-.785-3.158-9.09-9.001-18.457-5.843-9.366-12.884-21.525-15.648-27.019-11.136-22.136-12.087-23.234-16.67-19.225-1.825 1.596-5.632 4.124-8.46 5.618-4.653 2.457-7.224 7.972-3.716 7.972.785 0 2.257 1.76 3.273 3.91 7.42 15.719 12.978 25.704 14.308 25.704.86 0 1.564.926 1.564 2.056 0 2.007 17.185 31.497 18.359 31.504.326.001 3.692-2.391 7.48-5.317l.001.001zm-110.93-2.396c13.279-5.707 18.036-8.445 23.627-13.594 3.463-3.189 8.113-6.396 10.335-7.127 7.525-2.478 8.608-5.996 4.25-13.793-2.191-3.92-4.742-7.128-5.669-7.128-3.869 0-1.192-3.513 5.87-7.704 6.299-3.737 7.335-5.193 6.225-8.754-.731-2.349-1.186-6.049-1.009-8.221.766-9.441-1.586-12.899-12.116-17.815-13.125-6.128-14.346-6.099-23.168.54-8.424 6.34-11.607 13.11-16.921 35.989-2.138 9.206-4.442 17.646-5.121 18.756-.679 1.109-1.302 5.571-1.385 9.914-.083 4.344-.787 11.621-1.564 16.172l-1.412 8.274 7.159-1.951c3.937-1.073 8.842-2.674 10.899-3.558zm33.276-13.366c-1.283-3.531-3.641-3.29-5.023.513-1.988 5.468-1.236 6.848 2.418 4.439 1.955-1.288 3.127-3.517 2.605-4.952zm10.796-2.679c4.704-2.658 4.636-5.854-.123-5.854-2.057 0-3.741.372-3.741.826 0 .454-.51 2.231-1.135 3.948-1.322 3.639-.026 3.919 4.999 1.08zm-62.981-12.27c5.265-12.355 7.795-25.173 4.967-25.173-1.075 0-1.955.888-1.955 1.974 0 1.086-1.262 1.975-2.805 1.975-4.538 0-3.221-3.621 2.441-6.712 2.886-1.575 6.284-5.267 7.551-8.203 2.632-6.098 1.085-9.363-2.196-4.636-2.896 4.173-14.92 8.651-18.899 7.038-4.186-1.695-1.704-5.741 2.63-4.288 3.51 1.176 13.149-2.506 13.149-5.023 0-2.383-4.588-3.501-9.937-2.422-3.266.659-5.024.158-5.024-1.432 0-1.902-.598-1.923-2.686-.093-2.885 2.527-10.405-.242-10.405-3.831 0-2.655 25.771-1.237 28.424 1.564 3.025 3.194 8.45 3 10.289-.367.822-1.506 5.282-5.977 9.911-9.935 15.365-13.138 18.826-17.367 17.587-21.488-.762-2.535-.451-3.385.914-2.494 1.139.743 2.071.621 2.071-.272 0-.892 1.893-2.5 4.208-3.571 4.278-1.982 7.058-10.834 3.403-10.834-1.1 0-2.001.742-2.001 1.65 0 .907-6.311 4.192-14.026 7.3-7.714 3.108-14.027 6.26-14.027 7.005 0 .744-1.472 1.801-3.272 2.347-1.8.547-4.746 1.634-6.546 2.416-1.876.815-3.273.551-3.273-.62 0-1.123 4.839-4.451 10.753-7.396 28.574-14.225 36.823-18.601 35.533-18.849a60.317 60.317 0 01-3.273-.763 80.12 80.12 0 00-3.034-.74c-.64-.136-.293-1.358.772-2.715 1.37-1.748.889-4.737-1.65-10.243-2.786-6.042-3.062-8.126-1.239-9.348 3.352-2.247 4.749-1.996 4.649.835-.048 1.358.059 4.689.236 7.404.253 3.862.702 4.304 2.064 2.031.956-1.597 2.385-2.223 3.173-1.391.788.833.33 3.379-1.019 5.659-2.102 3.555-2.05 3.982.367 3.003 3.201-1.297 5.766 6.125 3.895 11.272-.854 2.35.068 3.118 3.742 3.118 3.181 0 4.876 1.076 4.876 3.095 0 2.176-1.089 2.729-3.67 1.864-2.434-.815-4.778.137-6.961 2.829-1.81 2.232-4.34 4.058-5.622 4.058s-1.917 1.139-1.411 2.532c.966 2.657 27.232 16.466 33.406 17.562 1.972.35 3.948 1.786 4.391 3.19.589 1.868-.625 2.221-4.521 1.312-6.841-1.596-28.648-12.395-32.922-16.304-1.807-1.652-3.814-2.444-4.461-1.761-2.391 2.524 10.481 18.889 14.999 19.069.905.037 6.036 4.892 11.404 10.79l9.76 10.724 5.895-3.785c3.242-2.081 5.895-3.245 5.895-2.585 0 .66 1.399-.019 3.11-1.509 2.424-2.113 3.282-2.166 3.896-.242 1.246 3.91 4.215 2.867 4.215-1.481 0-2.172.746-3.948 1.658-3.948.912 0 2.212-4.221 2.888-9.378.677-5.158 1.955-11.6 2.84-14.314.885-2.714 3.054-15.001 4.821-27.303 3.102-21.604 3.092-22.632-.29-30.087-1.926-4.244-4.041-7.728-4.701-7.74-.66-.013-1.706-2.022-2.324-4.465-1.308-5.168-12.57-19.249-15.395-19.249-1.058 0-6.699 2.73-12.536 6.067-5.939 3.396-10.199 4.918-9.672 3.455.561-1.559-2.939-5.399-8.679-9.522-7.679-5.517-11.42-6.91-18.556-6.91-4.917 0-9.521-.614-10.231-1.365-.711-.75-2.675-.593-4.364.35-1.689.942-4.539 2.193-6.333 2.779-1.794.585-4.947 3.982-7.006 7.548-4.062 7.032-4.822 10.371-1.931 8.485 2.857-1.864 16.874 2.792 16.874 5.605 0 1.386 2.946 4.003 6.546 5.815 3.6 1.813 6.545 4.643 6.545 6.289s-.454 2.993-1.01 2.993c-1.146 0-11.728-7.732-15.211-11.114-1.263-1.227-5.494-2.864-9.402-3.638-6.576-1.303-7.548-.865-13.075 5.883-3.284 4.01-6.501 9.837-7.148 12.95-.648 3.113-3.137 8.707-5.531 12.432-2.394 3.724-4.981 8.862-5.749 11.418-.767 2.555-3.376 7.96-5.797 12.01-2.422 4.05-4.418 8.049-4.437 8.884-.018.836-2.543 5.43-5.61 10.208-6.757 10.526-6.936 15.058-1.057 26.731 2.486 4.935 3.785 9.453 2.888 10.039-1.824 1.19-6.352-5.589-8.274-12.388-.69-2.443-1.923-4.442-2.739-4.442-3.551 0-5.396 49.672-2.053 55.281 1.749 2.934 16.77 7.249 26.723 7.676 4.498.193 5.742-1.124 9.586-10.144l.001-.001zm-14.787-.275c-2.036-1.572-3.282-3.269-2.77-3.772 1.887-1.851 13.231 1.129 12.547 3.296-1.08 3.424-5.669 3.647-9.778.476h.001zm96.473-47.443c-3.358-4.271 1.548-6.198 13.759-5.406 12.957.84 13.821 4.259 1.076 4.259-5.143 0-9.351.889-9.351 1.974 0 2.863-2.931 2.421-5.485-.827h.001zm-91.762-8.493c-5.891-1.116-8.292-3.49-6.545-6.474.977-1.67 1.926-1.718 3.39-.172 2.438 2.574 11.513 2.82 15.902.432 5.023-2.734 17.176-4.567 17.176-2.59 0 1.571-22.327 10.667-24.444 9.958-.442-.147-2.907-.667-5.479-1.154zm4.809-11.551c-5.04-5.321-3.216-7.246 2.672-2.82 3.086 2.319 5.611 4.601 5.611 5.07 0 2.088-5.619.562-8.283-2.25zm92.573-6.048c-2.132-2.861-3.827-7.082-3.767-9.378.107-4.063.171-4.072 2.338-.343 1.225 2.108 4.032 5.83 6.237 8.271 3.72 4.118 3.907 6.652.49 6.652-.782 0-3.167-2.341-5.299-5.202h.001zm-90.756-2.559c-1.278-2.182 1.672-4.538 3.399-2.715 1.778 1.877 1.447 4.553-.564 4.553-.967 0-2.244-.827-2.835-1.838zm35.453-6.059c-.636-1.086-.754-1.975-.263-1.975.49 0 2.233-.543 3.871-1.207 2.181-.883 2.67-.354 1.823 1.975-1.309 3.602-3.716 4.137-5.431 1.207zm44.807-10.003c-.678-1.159-.784-2.58-.235-3.16 1.34-1.414 4.987 1.078 4.987 3.407 0 2.524-3.229 2.355-4.752-.247zm-7.335-12.221c-2.019-3.522-3.702-7.293-3.74-8.379-.038-1.086-.808-2.541-1.712-3.234-1.871-1.436.071-5.65 2.603-5.65.922 0 2.228 3.109 2.903 6.91.704 3.957 2.338 6.91 3.825 6.91 1.429 0 2.598.793 2.598 1.763 0 .97 1.219 2.257 2.71 2.861 1.877.761 2.365.149 1.587-1.991-.848-2.331-.251-2.802 2.433-1.919 1.955.644 4.818.316 6.361-.729 1.867-1.264 2.023-1.909.467-1.929-4.022-.052-2.566-2.985 3.295-6.64 3.343-2.085 7.181-2.994 9.441-2.237 3.904 1.308 9.239-1.88 9.239-5.521 0-1.122-1.689-.426-3.752 1.545-2.064 1.972-4.378 2.876-5.143 2.011-.765-.866-.339-1.971.946-2.456 3.341-1.26 2.887-5.34-1.008-9.061-3.102-2.963-3.888-2.845-10.753 1.607-7.558 4.901-12.083 6.161-12.083 3.365 0-1.213 14.091-9.801 22.73-13.853 1.152-.541 16.543 21.771 16.543 23.982 0 .893-3.175 1.248-14.65 1.641-3.503.12-5.259.85-4.008 1.666 1.481.966 1.577 1.876.285 2.719a2.195 2.195 0 01-3.115-.741c-1.678-2.867-4.744-2.487-3.72.462 1.229 3.541-1.017 6.263-8.275 10.026-9.039 4.687-11.841 4.139-16.007-3.129v.001zm-32.797-.823c0-1.594 2.195-2.62 5.61-2.62 3.086 0 5.611.788 5.611 1.751 0 .962-2.525 2.141-5.611 2.619-3.828.593-5.61.037-5.61-1.75zm-27.195-6.7c-.678-1.158-.938-2.337-.578-2.62 1.731-1.359 29.642 1.435 29.642 2.968 0 2.523-27.576 2.194-29.064-.348zm63.663-11.714c-.636-1.086-.265-1.975.824-1.975 1.09 0 1.981.889 1.981 1.975 0 1.085-.371 1.974-.825 1.974-.453 0-1.345-.889-1.98-1.974zM346.75 303.545c1.981-5.502.72-10.899-2.532-10.832-2.914.06-12.054 7.754-9.277 7.809 1.217.025 2.746 1.821 3.399 3.993 1.647 5.476 6.281 4.941 8.41-.97zm-9.536-11.001l4.485-3.942-5.636-8.332c-3.1-4.582-6.249-10.406-6.998-12.941-1.131-3.823-2.21-4.385-6.326-3.295-6.341 1.681-6.872 2.322-4.461 5.389 1.088 1.383 2.042 3.404 2.121 4.49.08 1.086 1.517 3.667 3.196 5.737 1.678 2.069 3.829 6.734 4.779 10.365 1.998 7.64 2.774 7.863 8.841 2.529h-.001zm-118.255-8.626c-.619-1.702-2.083-3.095-3.254-3.095-1.173 0-1.619 1.403-.993 3.123.624 1.718 1.135 4.117 1.135 5.331 0 1.61.573 1.603 2.118-.029 1.165-1.23 1.613-3.629.994-5.33zm45.512.971c0-2.33-3.647-4.822-4.987-3.408-1.34 1.415 1.021 5.265 3.227 5.265.968 0 1.76-.836 1.76-1.857zm27.623-8.863c16.65-8.47 22.78-12.971 17.664-12.971-.806 0-2.963-2.674-4.791-5.942-2.964-5.298-3.63-5.618-6.147-2.961-1.553 1.639-4.025 2.98-5.495 2.98-1.469 0-2.671.852-2.671 1.895 0 1.042-3.577 2.974-7.949 4.294-10.63 3.209-11.957 4.501-13.248 12.907-1.099 7.146-.188 11.271 2.236 10.129.698-.329 9.878-4.978 20.401-10.331zm-63.515 6.624c-.368-1.168-1.469-2.123-2.446-2.123-.978 0-2.079.955-2.447 2.123-.369 1.167.732 2.122 2.447 2.122 1.714 0 2.815-.955 2.446-2.122zm-7.589-10.876c-1.782-1.881-5.355 1.166-4.027 3.435.789 1.348 1.835 1.314 3.178-.103 1.101-1.163 1.483-2.662.849-3.332zm47.673-6.251c1.79-6.244 3.79-15.795 4.443-21.225.653-5.429 1.816-10.76 2.583-11.845 1.925-2.725 4.056-27.234 4.677-53.771.564-24.121-2.219-44.113-6.341-45.544-2.02-.702-2.287.368-1.192 4.783 4.033 16.265.432 99.673-4.593 106.377-.814 1.086-2.073 6.638-2.799 12.338-.726 5.699-2.083 10.86-3.015 11.468-2.555 1.667-2.034 8.77.643 8.77 1.286 0 3.803-5.108 5.594-11.352v.001zm61.027-9.598c7.845-5.007 14.566-9.398 14.935-9.758 1.299-1.265-4.413-12.727-6.343-12.727-1.807 0-11.815 4.966-17.217 8.543-1.791 1.186-1.628 2.645.721 6.429 3.585 5.777 1.541 9.439-2.23 3.994-1.422-2.052-2.972-4.716-3.445-5.919-.609-1.55-1.311-1.57-2.405-.07-.85 1.165-3.133 2.738-5.073 3.496-3.155 1.233-3.234 1.739-.751 4.792 1.526 1.878 3.297 4.969 3.936 6.869.638 1.9 1.711 3.455 2.385 3.455.673 0 7.642-4.097 15.488-9.104h-.001zm-43.105 1.068c6.32-3.334 11.953-6.851 12.518-7.816 1.033-1.765-4.42-21.79-6.436-23.635-.593-.543-2.686-4.324-4.652-8.402-1.965-4.079-4.028-6.936-4.584-6.349-.556.587-1.607 5.701-2.336 11.365-.73 5.663-2.155 13.851-3.168 18.194-2.594 11.121-4.407 22.705-3.553 22.705.396 0 5.891-2.728 12.211-6.061v-.001zm-89.442-8.746c0-1.629-1.365-2.961-3.034-2.961-2.485 0-2.613.536-.706 2.961 1.28 1.629 2.646 2.962 3.034 2.962.388 0 .706-1.333.706-2.962zm116.184-5.408c1.601-2.627-1.463-11.056-12.009-33.04-13.74-28.643-18.145-32.274-18.145-14.957 0 7.338.861 11.27 2.706 12.36 3.312 1.956 12.511 20.234 15.954 31.697 2.155 7.176 3.106 8.231 6.428 7.138 2.145-.706 4.424-2.144 5.066-3.198zm9.432-5.051c.343-.867 3.99-3.392 8.104-5.611 8.482-4.577 9.959-9.207 6.651-20.862-2.284-8.046-4.56-9.035-10.282-4.466-4.091 3.267-16.006 3.955-16.006.925 0-1.086 1.978-1.975 4.396-1.975 7.412 0 15.751-3.993 16.748-8.019.521-2.102.184-4.32-.748-4.928-.932-.608-1.694-2.701-1.694-4.652 0-4.648-12.008-28.416-14.864-29.42-1.218-.429-2.626.88-3.129 2.909-1.298 5.241-12.051 11.56-14.001 8.229-.806-1.377-2.118-1.814-2.916-.972-.797.842-.633 2.149.366 2.904 2.134 1.614 13.973 25.474 13.973 28.162 0 4.917-3.582.714-8.106-9.513-6.184-13.977-16.122-30.856-17.384-29.523-2.066 2.181 1.924 15.843 6.192 21.198 8.364 10.494 25.639 45.991 24.357 50.051-1.369 4.336 6.7 9.716 8.344 5.563h-.001zm171.686-7.803c-.118-2.948-4.718-7.845-8.584-9.141-4.935-1.654-10.621-8.14-11.309-12.899-.624-4.314 4.162-9.112 10.602-10.628 2.571-.605 10.896-2.561 18.5-4.346 12.202-2.865 18.903-6.299 18.903-9.686 0-.594-2.129-.225-4.731.82-2.603 1.044-15.016 2.04-27.585 2.212-12.569.172-23.852 1.134-25.072 2.137-1.358 1.118-3.533 1.112-5.61-.014-1.866-1.011-7.9-2.375-13.409-3.03-5.509-.655-10.979-1.975-12.156-2.932-2.374-1.933-20.406-8.268-23.53-8.268-1.146 0-1.987 4.326-1.987 10.225 0 12.053-3.226 22.96-8.216 27.78-3.509 3.39-3.509 3.453-.019 3.338 1.958-.064 12.816-1.28 24.131-2.702 12.045-1.513 21.021-1.846 21.657-.803.596.98 2.46 1.225 4.141.544 1.77-.718 5.577.656 9.044 3.261 3.292 2.475 9.003 4.814 12.69 5.198 3.687.384 9.639 2.884 13.227 5.556 6.699 4.989 9.418 5.975 9.313 3.377v.001zm-42.954-28.134c0-1.086.792-1.974 1.759-1.974.968 0 2.28.888 2.916 1.974.636 1.086-.156 1.974-1.76 1.974-1.603 0-2.915-.888-2.915-1.974zm-3.741-3.949c0-3.685.499-4.211 2.244-2.369 1.746 1.843 1.746 2.896 0 4.739-1.745 1.842-2.244 1.316-2.244-2.37zm-300.98-7.403c1.254-4.072 4.685-10.641 7.626-14.598 2.94-3.957 5.346-8.177 5.346-9.378 0-1.201.775-2.183 1.722-2.183.946 0 2.276-2.666 2.953-5.923.678-3.258 1.826-5.923 2.551-5.923.725 0 2.772-2.598 4.549-5.774 3.308-5.912 3.428-22.115.227-30.751-1.577-4.255-7.712-14-11.587-18.405-4.312-4.903-10.429 2.009-20.223 22.848-5.428 11.549-6.923 17.313-7.736 29.832-1.03 15.873 1.37 31.867 6.336 42.229 3.508 7.319 5.524 6.836 8.237-1.974h-.001zm367.836-9.085c2.314-.851 4.208-2.84 4.208-4.42 0-2.433-.707-2.385-4.6.307-3.007 2.08-6.465 2.749-9.988 1.932-3.424-.794-6.118-.318-7.392 1.306-1.584 2.023-.378 2.542 5.781 2.488 4.28-.037 9.676-.763 11.991-1.613zm-245.787-28.318c-3.932-7.709-8.248-9.661-13.582-6.145-4.924 3.247-4.922 3.26 1.876 11.466 3.148 3.8 7.564 10.907 9.814 15.794l4.089 8.884.572-11.726c.41-8.412-.373-13.576-2.769-18.273zm242.516 21.06c0-.987-1.258-1.286-2.795-.663-1.536.622-2.32 1.942-1.74 2.931 1.212 2.071 4.535.409 4.535-2.268zM314.194 147.67c-4.739-9.39-4.862-9.44-11.081-4.508-3.251 2.577-7.328 5.237-9.061 5.91-1.732.673-4.066 3.031-5.186 5.24-1.718 3.39-1.552 3.82 1.068 2.758 2.141-.867 2.833-.4 2.231 1.508-.923 2.923 1.637 6.539 5.623 7.942 1.313.462 6.003-2.676 10.422-6.974 6.965-6.775 7.761-8.354 5.984-11.875v-.001zm-78.042 3.204c3.748-3.062 10.181-7.679 14.295-10.261 4.115-2.582 7.902-5.202 8.416-5.825 1.484-1.796 12.012-6.712 13.559-6.331.772.189 1.403-.402 1.403-1.313 0-.912 2.104-2.67 4.675-3.907 5.4-2.597 5.899-6.424 1.715-13.165-1.699-2.737-2.503-6.704-1.887-9.309.59-2.496.59-3.428-.001-2.07-1.421 3.266-4.502 3.164-4.502-.15 0-1.44-2.104-4.704-4.676-7.255-5.715-5.668-5.985-3.69-.721 5.3 2.174 3.715 3.379 7.361 2.677 8.101-1.902 2.008-6.972-5.998-12.242-19.326-2.571-6.505-5.268-11.83-5.993-11.835-.725-.005-1.872-3.128-2.55-6.94-1.591-8.954-7.724-13.131-12.717-8.664-1.164 1.041-7.367 5.198-13.783 9.238-6.417 4.04-13.269 8.81-15.229 10.6-1.96 1.79-5.26 3.823-7.334 4.518-2.075.695-4.792 2.562-6.04 4.149-2.616 3.328-7.421 3.863-7.421.826 0-1.132-3.262-6.685-7.249-12.34-12.506-17.735-13.692-23.445-5.443-26.208 2.086-.699 7.365-3.929 11.73-7.177 5.22-3.885 10.568-6.048 15.621-6.32 8.066-.435 11.3-2.142 8.773-4.632-.826-.814-1.878-.37-2.337.987-.945 2.792-6.134 3.404-6.134.724 0-.96 1.473-2.306 3.273-2.993 4.368-1.667 11.526-6.148 14.011-8.77 5.744-6.064-13.611-16.107-31.04-16.107-17.266 0-29.981 7.292-39.591 22.705-3.069 4.923-3.68 9.232-3.615 25.529.053 13.509.78 19.852 2.337 20.401 1.243.438 2.261 1.918 2.261 3.29 0 1.373 1.472 4.381 3.272 6.686 11.652 14.919 14.635 19.057 15.766 21.874.987 2.461 1.3 2.203 1.402-1.159.072-2.379-.724-4.883-1.769-5.565-1.045-.683-1.394-2.107-.774-3.165.62-1.058.109-3.218-1.134-4.8-1.243-1.58-1.518-2.874-.611-2.874 5.116 0 10.348 20.69 10.748 42.496l.217 11.895 14.962-.122c13.175-.107 15.347.389 18.189 4.151 1.775 2.35 5.014 4.766 7.198 5.369 3.363.928 3.792.437 2.805-3.213-2.738-10.125-3.302-15.167-1.696-15.167 2.321 0 6.454 16.835 5.068 20.647-1.804 4.962 4.582 3.632 12.115-2.523h.001zm-9.082-15.279c0-1.693.842-2.529 1.87-1.858 1.029.671 1.871 2.056 1.871 3.078a1.87 1.87 0 01-1.871 1.858c-1.028 0-1.87-1.385-1.87-3.078zm1.01-10.055c.645-3.093 1.497-6.733 1.893-8.091.853-2.923 6.448-3.352 6.448-.493 0 1.086-.786 1.974-1.746 1.974s-2.012 2.375-2.338 5.277c-.325 2.903-1.68 5.655-3.011 6.117-1.767.613-2.103-.676-1.246-4.784zm23.845 20.544c3.302-2.44 6.353-4.661 6.782-4.936.428-.275.172-1.141-.569-1.924-.742-.783-1.934-.527-2.65.569-.715 1.097-4.246 3.943-7.846 6.327-3.6 2.383-5.46 4.348-4.132 4.366 1.327.018 5.114-1.963 8.416-4.402h-.001zm17.997-3.781c-1.478-2.915-2.628-3.678-3.134-2.077-.821 2.6 3.181 9.099 4.649 7.548.451-.476-.231-2.938-1.515-5.472v.001zm-4.437-5.735c1.919-3.278.197-3.733-2.488-.657-1.326 1.519-1.587 2.762-.578 2.762 1.008 0 2.388-.947 3.066-2.105zm-70.736-55.383c3.174-3.351-12.369-29.382-17.545-29.382-6.369 0-3.644 8.197 8.366 25.173 4.961 7.011 6.05 7.511 9.179 4.209zm17.899-13.22c4.331-2.363 9.557-5.41 11.612-6.774 2.055-1.363 8.931-5.952 15.282-10.198l11.546-7.72-7.801-11.753c-4.291-6.463-8.777-12.16-9.97-12.66-2.368-.99-13.037 4.291-16.893 8.361-1.9 2.006-1.919 2.759-.091 3.543 1.782.764 1.724 1.436-.251 2.896-1.415 1.045-2.907 5.107-3.316 9.026-.409 3.919-1.59 9.473-2.623 12.343-1.034 2.87-1.491 5.63-1.015 6.131 1.002 1.058 15.825-7.19 19.478-10.838 1.359-1.357 3.047-2.468 3.75-2.468 1.916 0 5.719-14.09 4.62-17.115-.526-1.445-1.797-2.628-2.826-2.628-1.028 0-1.385 1.333-.793 2.962.592 1.628.261 2.961-.735 2.961-.997 0-1.812 1.704-1.812 3.787 0 4.994-1.894 10.034-3.772 10.034-.825 0-.413-4.942.917-10.982 2.198-9.981 2.14-10.86-.636-9.648-1.68.734-4.738 1.794-6.795 2.356-3.473.949-3.523.78-.702-2.374 4.389-4.906 14.613-5.004 17.276-.167 1.17 2.126 3.18 5.077 4.465 6.558 2.647 3.049 3.001 5.639.935 6.858-.771.455-.35.557.935.226 1.286-.33 2.338.122 2.338 1.006 0 1.946-42.536 29.858-45.501 29.858-1.987 0-14.47-21.879-13.464-23.597.666-1.138.41-2.07-.569-2.07-.98 0-2.265 1.334-2.857 2.962-.592 1.63-.417 2.962.39 2.962.807 0 3.478 3.776 5.934 8.39 6.064 11.39 13.687 19.372 14.483 15.165.322-1.705 4.129-5.032 8.461-7.394zm-9.093-3.664c.659-1.814.142-3.987-1.15-4.83-1.756-1.146-1.536-1.862.872-2.837 1.774-.719 3.22-3.374 3.22-5.913 0-2.534.842-5.157 1.87-5.828 3.147-2.053 2.083-4.936-1.822-4.936-6.428 0-11.599 15.34-8.264 24.518 1.474 4.055 3.764 3.98 5.274-.174zm-7.585-14.858c1.102-.756 1.417-1.993.7-2.75-2.189-2.31-6.86 3.209-5.615 6.635.964 2.65 1.32 2.711 2.04.35.48-1.574 1.773-3.48 2.875-4.235zm-2.564-5.537c0-1.086 1.263-1.974 2.805-1.974 1.543 0 2.806-.87 2.806-1.932 0-1.176-1.832-1.052-4.676.316-4.669 2.246-6.342 5.564-2.805 5.564 1.029 0 1.87-.888 1.87-1.974zm170.185 608.089c0-1.086 1.312-1.974 2.916-1.974 1.603 0 2.395.888 1.759 1.974-.635 1.086-1.947 1.974-2.915 1.974s-1.76-.888-1.76-1.974zm-27.347-26.574c-.642-1.766-.763-3.638-.269-4.16 1.584-1.672 7.227 1.527 6.539 3.707-1.124 3.558-5.039 3.841-6.27.453zm-14.264-11.123c-6.776-7.515-8.711-11.661-5.444-11.661 2.951 0 15.709 16.113 14.079 17.78-.892.912-4.778-1.842-8.635-6.12v.001zm10.602-.073c-1.272-2.173 1.398-3.227 7.478-2.951 3.001.136 5.779 1.272 6.173 2.523.791 2.51-12.193 2.917-13.651.428zm-5.927-9.679c-6.923-2.931-4.883-3.883 8.323-3.883 7.301 0 11.788.724 10.753 1.735-2.845 2.777-14.492 4.089-19.076 2.148zm76.373-4.076c-2.356-3.364-3.566-6.837-2.689-7.718.876-.882 3.9 1.871 6.719 6.116 6.175 9.3 2.41 10.798-4.03 1.602zm-5.771-14.453c0-1.54-.511-4.205-1.135-5.923-.745-2.049-.102-3.123 1.87-3.123 1.653 0 3.005.861 3.005 1.912 0 1.052 1.263 1.401 2.806.776 1.776-.719 2.805.027 2.805 2.037 0 1.745-1.262 3.172-2.805 3.172-1.543 0-2.806.889-2.806 1.975s-.841 1.974-1.87 1.974c-1.028 0-1.87-1.26-1.87-2.8zm-2.844-17.725c-3.176-8.023-3.327-9.09-1.286-9.09 2.35 0 7.624 13.748 5.744 14.975-.931.607-2.937-2.041-4.458-5.885zm-8.377-27.846c0-5.547.559-5.816 5.854-2.824 2.985 1.687 3.291 2.681 1.519 4.936-3.515 4.471-7.373 3.366-7.373-2.112zm1.87-8.885c0-1.085 1.683-1.974 3.741-1.974 2.057 0 3.74.889 3.74 1.974 0 1.086-1.683 1.975-3.74 1.975-2.058 0-3.741-.889-3.741-1.975zm-6.366-13.052c-.847-2.329-.358-2.858 1.823-1.975 1.638.664 3.331 1.207 3.761 1.207.43 0 .782.889.782 1.975 0 3.216-5.111 2.247-6.366-1.207zm-234.051-8.445c-2.621-2.767 3.48-4.169 18.136-4.169 11.87 0 16.665.672 16.161 2.267-.663 2.1-32.44 3.862-34.297 1.902zm38.441-2.194c0-1.086 4.208-1.975 9.351-1.975 5.143 0 9.351.889 9.351 1.975 0 1.085-4.208 1.974-9.351 1.974-5.143 0-9.351-.889-9.351-1.974zm22.442 0c0-1.086 1.683-1.975 3.741-1.975 2.057 0 3.74.889 3.74 1.975 0 1.085-1.683 1.974-3.74 1.974-2.058 0-3.741-.889-3.741-1.974zm41.144 0c0-1.086 1.262-1.975 2.805-1.975 1.543 0 2.805.889 2.805 1.975 0 1.085-1.262 1.974-2.805 1.974-1.543 0-2.805-.889-2.805-1.974zm195.372-2.074c-1.777-3.036.657-4.994 3.057-2.46 1.343 1.418 1.376 2.522.098 3.356-1.047.683-2.467.28-3.155-.896zm25.305-.888c0-1.81.905-2.972 2.01-2.583 1.106.389 2.011 1.551 2.011 2.583 0 1.032-.905 2.194-2.011 2.583-1.105.389-2.01-.773-2.01-2.583zm-15.897-.987c.636-1.086 1.948-1.974 2.916-1.974s1.76.888 1.76 1.974c0 1.086-1.312 1.974-2.916 1.974-1.603 0-2.395-.888-1.76-1.974zm8.416 0c0-1.086.842-1.974 1.871-1.974 1.028 0 1.87.888 1.87 1.974 0 1.086-.842 1.974-1.87 1.974-1.029 0-1.871-.888-1.871-1.974zm34.119.662c-6.341-2.698 1.779-4.227 23.847-4.492 15.827-.19 24.322.428 24.322 1.769 0 1.306-7.48 2.061-20.419 2.061-11.23 0-21.539.374-22.909.83-1.37.457-3.548.382-4.84-.168h-.001zm-200.566-21.276c0-1.565.768-3.346 1.707-3.959.939-.613 2.275-4.66 2.969-8.993 1.102-6.885.533-8.849-4.513-15.575-6.069-8.09-6.875-10.089-4.065-10.089 2.971 0 13.253 16.375 13.253 21.106 0 5.325-5.849 20.355-7.922 20.355-.786 0-1.429-1.28-1.429-2.845zm-124.267-52.93c-.397-1.357-1.242-7.786-1.88-14.287-.638-6.501-1.971-12.675-2.962-13.722-2.132-2.252-2.405-7.042-.399-7.02 2.881.031 6.316 11.273 7.386 24.17.608 7.33.536 13.327-.16 13.327-.696 0-1.589-1.111-1.985-2.468zm264.533-1.48c0-1.086.891-1.975 1.98-1.975s1.461.889.825 1.975c-.636 1.085-1.527 1.974-1.981 1.974-.453 0-.824-.889-.824-1.974zm2.28-5.43c.397-.814 2.138-4.752 3.868-8.749 3.259-7.53 6.943-11.472 6.943-7.431 0 3.468-7.917 17.661-9.851 17.661-.925 0-1.357-.666-.96-1.481zm-348.64-5.626c2.89-5.632 13.25-15.499 14.684-13.985 1.509 1.593-3.882 8.16-11.25 13.705-5.032 3.786-5.242 3.803-3.434.28zm351.214-20.225c-.647-1.106-.266-2.605.848-3.332 2.876-1.876 4.731.694 2.33 3.228-1.343 1.418-2.389 1.452-3.178.103v.001zm39.177-9.687c.781-1.9 1.805-6.343 2.275-9.872.994-7.46 4.186-8.687 4.186-1.609 0 6.627-3.207 14.936-5.764 14.936-1.31 0-1.576-1.316-.697-3.455zm-89.482-5.666c-4.938-2.615-8.495-5.578-7.907-6.584.61-1.042 3.671-.461 7.107 1.349a810.096 810.096 0 009.284 4.818c1.786.903 8.729 1.641 15.428 1.641 6.874 0 12.182.86 12.182 1.974 0 1.154-5.635 1.888-13.559 1.766-10.313-.159-15.707-1.347-22.536-4.964h.001zm-257.523-2.725c0-1.086 1.313-1.974 2.916-1.974 1.604 0 2.396.888 1.76 1.974-.636 1.086-1.948 1.974-2.916 1.974s-1.76-.888-1.76-1.974zm-9.974-5.265c-2.716-2.867-.887-3.618 7.164-2.942 4.625.389 7.942 1.506 7.37 2.482-1.202 2.053-12.68 2.417-14.533.46h-.001zm-44.26-24.35c0-1.085.841-1.974 1.87-1.974 1.028 0 1.87.889 1.87 1.974 0 1.086-.842 1.975-1.87 1.975-1.029 0-1.87-.889-1.87-1.975zm364.645-4.983c-1.301-1.655-1.845-3.559-1.209-4.23 1.358-1.434 6.857 2.982 6.857 5.507 0 2.719-3.048 2.03-5.648-1.277zm-365.343-3.43c-1.75-6.892-1.397-8.06 1.632-5.407 3.12 2.734 3.691 7.087 1.148 8.746-.912.595-2.162-.907-2.78-3.338v-.001zm8.924.195c-.85-1.452-1.883-10.734-2.293-20.627-.587-14.16-.059-19.516 2.484-25.173 1.776-3.952 3.976-7.186 4.887-7.186 2.29 0 1.982 2.118-1.148 7.898-3.224 5.953-3.759 33.917-.762 39.828 2.394 4.723-.585 9.669-3.168 5.26zm339.116-17.941c-35.225-36.131-46.994-48.349-52.488-54.497-5.776-6.463-5.806-6.588-1.241-5.275 2.571.74 6.358 3.543 8.416 6.23 11.26 14.708 19.976 24.1 30.988 33.394 18.408 15.536 34.355 34.462 29.037 34.462-.416 0-7.035-6.442-14.711-14.314h-.001zm-350.135 4.41c.646-1.104 1.958-1.496 2.916-.871 2.594 1.693 2.11 2.877-1.175 2.877-1.603 0-2.387-.903-1.74-2.006zm292.663-46.249c0-3.504 6.792-7.825 8.286-5.272.568.97-1.064 3.214-3.627 4.986-4.004 2.77-4.659 2.81-4.659.286zm-2.783-89.908c-.759-1.297-.538-3.246.491-4.332 2.437-2.573 4.374.736 2.402 4.104-1.149 1.964-1.844 2.018-2.893.228zm-22.55-21.903c-.683-1.166.61-4.2 2.872-6.743 5.115-5.747 13.104-8.15 15.22-4.577 1.11 1.875-.122 2.853-4.498 3.569-3.899.639-6.68 2.557-7.874 5.43-2.022 4.864-3.807 5.589-5.72 2.321z" fill="#E5E5E5"/></svg>