<svg xmlns="http://www.w3.org/2000/svg" width="101" height="122" fill="none">
  <defs/>
  <path fill="#1F3946" fill-rule="evenodd" d="M23.051 50.3728a.71286.71286 0 00-.4871.2077L6.21548 66.8862a.7122.7122 0 00-.15508.2316.71343.71343 0 00-.05448.2734v53.8958c.00002.189.07517.37.20894.504a.71232.71232 0 00.50434.209h32.9393c.1892 0 .3706-.075.5043-.209.1338-.134.209-.315.209-.504V67.3912a.7139.7139 0 00-.2132-.5086L23.5677 50.5769a.71248.71248 0 00-.2376-.1544.7125.7125 0 00-.2791-.0497zm.0202 1.7167l15.874 15.6009v52.8826H7.43248V67.6872L23.0712 52.0895z" clip-rule="evenodd"/>
  <path fill="#1F3946" fill-rule="evenodd" d="M23.0022 33.8817a.71295.71295 0 00-.4766.2033L.21414 55.9542a.71354.71354 0 00-.2141.5023.71376.71376 0 00.20381.5066.71296.71296 0 00.50232.214.71196.71196 0 00.27356-.0515.71336.71336 0 00.233-.1523L23.0284 35.59l22.1402 21.3869a.7149.7149 0 00.2341.1506.71336.71336 0 00.274.0496.71337.71337 0 00.272-.0589.71373.71373 0 00.2288-.1587.7131.7131 0 00.1507-.2341.71475.71475 0 00.0496-.2739.71221.71221 0 00-.0591-.2721.71254.71254 0 00-.1586-.2287L23.5206 34.0815a.71285.71285 0 00-.239-.1524.71295.71295 0 00-.2794-.0474zM23.1853 75.2838a.71282.71282 0 00-.501.2163.71239.71239 0 00-.2015.5071v27.7218l-5.6381-6.9304a.71307.71307 0 00-.2141-.1822.71477.71477 0 00-.2677-.0851.71366.71366 0 00-.2799.0249.71316.71316 0 00-.4274.3478.71247.71247 0 00-.0811.269c-.009.0942.0009.189.029.2793.0282.0903.074.1743.1348.2468l6.9045 8.4879c.0669.082.1513.148.247.194.0957.045.2003.069.3062.069.106 0 .2106-.024.3063-.069.0957-.046.1801-.112.247-.194l6.9045-8.4879a.71477.71477 0 00.1347-.2468.7116.7116 0 00.0291-.2793.71247.71247 0 00-.0811-.269.7146.7146 0 00-.1788-.2169.7123.7123 0 00-.2486-.1309.71366.71366 0 00-.2799-.0249.71477.71477 0 00-.2677.0851.71307.71307 0 00-.2141.1822l-5.6381 6.9304V76.0072a.71298.71298 0 00-.209-.5147.71442.71442 0 00-.2363-.1567.7131.7131 0 00-.2787-.052zM77.2368 16.7052a.71306.71306 0 00-.4881.2041L60.1578 33.2006a.7143.7143 0 00-.1581.2331.71488.71488 0 00-.0555.276v87.5763c0 .189.0752.371.209.505.1337.134.3151.209.5043.209h32.9393c.1892 0 .3706-.075.5043-.209a.7154.7154 0 00.209-.505V33.7097a.71459.71459 0 00-.0547-.2734.71218.71218 0 00-.1553-.2316L77.7517 16.9133a.71304.71304 0 00-.2363-.1562.71285.71285 0 00-.2786-.0519zm.008 1.7163l15.6387 15.5843v86.5672H61.3708V34.0094l15.874-15.5879z" clip-rule="evenodd"/>
  <path fill="#1F3946" fill-rule="evenodd" d="M77.2739.74264a.71358.71358 0 00-.4784.20018L54.156 22.8262a.71414.71414 0 00-.1656.2288.7137.7137 0 00-.0638.2753.71312.71312 0 00.0479.2783.71363.71363 0 00.1523.2379.7118.7118 0 00.2327.1602.71265.71265 0 00.2766.0573.71209.71209 0 00.2771-.0546.7143.7143 0 00.2343-.1578L77.2877 2.45096 99.1034 23.848a.71306.71306 0 00.2331.1606c.0877.0375.182.0569.2773.0573a.7137.7137 0 00.2777-.0551c.088-.0367.1675-.0907.2345-.1587.067-.0681.119-.1488.154-.2375a.71827.71827 0 00.05-.2788c-.002-.0953-.024-.1891-.063-.276a.70868.70868 0 00-.165-.23L77.7906.94639a.71451.71451 0 00-.2377-.1542.71381.71381 0 00-.279-.04955zM76.7403 46.3921a.71309.71309 0 00-.3018.0714.71297.71297 0 00-.243.1926l-6.8903 8.488a.71267.71267 0 00-.1384.2472.71438.71438 0 00-.0313.2816.7122.7122 0 00.0809.2716c.0448.0842.106.1585.1801.2186a.7127.7127 0 00.2511.1313.71225.71225 0 00.2823.0232.71307.71307 0 00.4826-.2748l5.6234-6.9273v51.2865c-.0014.094.0161.188.0513.276.0353.088.0876.167.154.235.0664.067.1454.12.2326.157.0872.036.1808.055.2754.055.0945 0 .1881-.019.2753-.055.0872-.037.1663-.09.2326-.157.0664-.068.1187-.147.154-.235.0352-.088.0527-.182.0513-.276V49.1128l5.6381 6.9309a.712.712 0 00.2141.1815.7142.7142 0 00.5472.0599.71373.71373 0 00.4268-.3475.71318.71318 0 00.0813-.2686.7135.7135 0 00-.0288-.2793.7106.7106 0 00-.1342-.2465l-6.9045-8.488a.71234.71234 0 00-.251-.1958.71261.71261 0 00-.3111-.0673z" clip-rule="evenodd"/>
</svg>
