<svg xmlns="http://www.w3.org/2000/svg" width="112" height="124" fill="none">
  <defs/>
  <path fill="#1F3946" d="M18.1315 24.742c8.3103-8.4992 19.2648-13.9764 30.9747-15.48736.9444 3.02196 3.5886 5.47726 6.9882 5.47726 3.9663 0 7.366-3.2108 7.366-7.36596C63.4604 3.21079 60.2496 0 56.0944 0c-3.7774 0-6.7993 2.83305-7.177 6.42159C36.4519 7.93255 24.742 13.7875 16.054 22.6644l2.0775 2.0776zM56.0944 2.83305c2.4553 0 4.5329 2.07757 4.5329 4.53289 0 2.45531-2.0776 4.53286-4.5329 4.53286s-4.5329-2.07755-4.5329-4.53286c0-2.64419 2.0776-4.53289 4.5329-4.53289zM2.45531 77.6254l2.64418-.7555c-1.51096-4.9107-2.07757-9.8213-2.07757-14.9208 0-6.9882 1.32209-13.9764 3.96628-20.3979.56661.1888 1.32209.1888 1.8887.1888 2.6442 0 5.0995-1.3221 6.4216-3.5885.9443-1.6998 1.3221-3.5885.7555-5.4772-.5666-1.8887-1.6999-3.3997-3.3997-4.5329-1.1332-.5666-2.4553-.9444-3.7774-.9444-2.64419 0-5.0995 1.3221-6.42159 3.5886-1.8887 3.2107-.94435 7.177 1.8887 9.4435C1.51096 47.0284 0 54.3943 0 61.9491c.18887 5.0995.94435 10.5768 2.45531 15.6763zm2.64418-45.5178c.75548-1.322 2.26645-2.2664 3.96628-2.2664.75548 0 1.51093.1889 2.26643.5666.9444.5666 1.6998 1.511 2.0776 2.8331.3777 1.1332.1888 2.4553-.3778 3.3996-1.3221 2.0776-4.1551 2.8331-6.23267 1.511-2.26645-1.1332-3.02193-3.9663-1.69984-6.0439zM13.7875 93.8687c2.2665-2.2665 2.8331-5.855 1.1333-8.8769-1.3221-2.2665-3.7775-3.7774-6.42163-3.7774-1.32209 0-2.45531.3777-3.58854.9443-1.69983.9444-3.02192 2.4553-3.39966 4.344-.56661 1.8887-.18887 3.7774.75548 5.6661 1.32209 2.2665 3.77741 3.7774 6.42159 3.7774.94435 0 1.88866-.1888 2.83306-.5666C18.887 105.012 29.086 112.189 40.796 115.4l.7554-2.644c-10.9544-3.022-20.7757-9.822-27.7639-18.8873zm-9.06574-3.022c-.56661-1.1332-.75548-2.2664-.37774-3.3996.37774-1.1333 1.13322-2.0776 2.07758-2.6442.75548-.3777 1.51096-.5666 2.26644-.5666 1.69986 0 3.21076.9443 3.96626 2.2664 1.1332 2.0776.3778 4.9106-1.6998 6.2327-2.07759 1.1333-4.91064.1889-6.23274-1.8887zM93.6796 99.1567c-8.3103 8.3103-19.0759 13.5983-30.597 15.1093-.7555-3.022-3.5885-5.477-6.9882-5.477-3.9663 0-7.3659 3.211-7.3659 7.177 0 1.889.7555 3.778 2.0776 5.289 1.322 1.322 3.2108 2.266 5.0995 2.266 3.7774 0 6.7993-2.833 7.177-6.422 12.2766-1.511 23.6088-7.177 32.4857-16.054l-1.8887-1.8883zM56.0944 120.877v1.511-1.511c-1.3221 0-2.4553-.567-3.2108-1.322-.7555-.945-1.3221-2.078-1.3221-3.211 0-2.455 2.0776-4.533 4.5329-4.533s4.5329 2.078 4.5329 4.533c0 2.455-2.0776 4.533-4.5329 4.533zM98.5902 30.0302c-.9443.9444-1.5109 1.8887-1.8887 3.2108-.5666 1.8887-.3777 3.7774.5666 5.6661 1.3221 2.2665 3.7779 3.7774 6.4219 3.7774 1.322 0 2.455-.3777 3.588-.9443 1.7-.9444 3.022-2.4553 3.4-4.344.567-1.8887.378-3.7774-.567-5.6661-1.322-2.2665-3.777-3.7774-6.421-3.7774-.945 0-1.889.1888-2.644.5666-7.7441-10.3879-18.8875-17.9427-31.3529-20.96461l-.7555 2.83301c11.8988 2.8331 22.4756 9.8213 29.6526 19.6425zm9.0658 3.022c.567 1.1332.755 2.2664.378 3.3996-.378 1.1332-1.133 2.0776-2.078 2.6442-2.077 1.1332-4.91.3777-6.0437-1.6998-.5666-1.1333-.7555-2.2665-.3777-3.3997.3777-1.1332 1.1334-2.0776 2.0774-2.6442.756-.3777 1.511-.5666 2.267-.5666 1.511 0 3.022.9444 3.777 2.2665zM107.467 83.8583C110.489 76.8701 112 69.5042 112 61.7605c0-4.7218-.567-9.6324-1.889-14.1653l-2.833.7555c1.133 4.344 1.7 8.8769 1.7 13.4098 0 7.177-1.511 14.1652-4.344 20.7757-.567-.1889-1.322-.1889-2.078-.1889-2.6437 0-4.9101 1.3221-6.2322 3.5886-.9444 1.6998-1.3221 3.5885-.7555 5.4772.5666 1.8887 1.6998 3.5885 3.3996 4.5329 1.1331.7555 2.4551.9443 3.7771.9443 2.645 0 4.911-1.3221 6.233-3.5885.944-1.6998 1.322-3.5885.756-5.4772 0-1.511-.945-2.8331-2.267-3.9663zm-.755 8.1214c-1.134 2.0776-4.156 2.8331-6.233 1.511-2.0777-1.3221-2.8331-3.9663-1.5111-6.2328.7555-1.322 2.2661-2.2664 3.9661-2.2664.756 0 1.511.1889 2.267.5666.944.5666 1.699 1.511 2.077 2.8331.378 1.3221.189 2.4553-.566 3.5885zM56.0945 35.5075c-2.2665 0-4.5329.5666-6.4216 1.6998-1.8887-1.1332-3.9663-1.8887-6.0439-1.8887-6.0438 0-11.1433 4.9106-11.1433 11.1433 0 6.2328 4.9106 11.1434 11.1433 11.1434 1.3221 0 2.4553-.1889 3.5886-.5666 2.2664 2.2664 5.4772 3.5885 8.8769 3.5885 3.3996 0 6.6104-1.3221 8.8769-3.5885 1.1332.3777 2.4553.5666 3.5885.5666 6.0438 0 11.1433-4.9106 11.1433-11.1434 0-6.2327-4.9106-11.1433-11.1433-11.1433-2.2665 0-4.344.7555-6.0439 1.8887-1.8887-1.1332-4.1551-1.6998-6.4215-1.6998zM35.3187 46.4619c0-4.5328 3.7774-8.3102 8.3103-8.3102 1.3221 0 2.6442.3777 3.7774.9443-2.2664 2.2664-3.7774 5.4772-3.7774 8.8769 0 2.4553.7555 4.5329 1.8887 6.4216-.5666.1889-1.1332.1889-1.8887.1889-4.7217.1888-8.3103-3.5886-8.3103-8.1215zm20.7758 11.3323c-5.2884 0-9.8213-4.3441-9.8213-9.8213 0-5.2884 4.344-9.8212 9.8213-9.8212 5.2883 0 9.8212 4.344 9.8212 9.8212 0 5.4772-4.5329 9.8213-9.8212 9.8213zm12.4654-19.6425c4.5329 0 8.3103 3.7774 8.3103 8.3102 0 4.5329-3.7774 8.3103-8.3103 8.3103-.5666 0-1.1332 0-1.8887-.1888 1.1332-1.8887 1.8887-4.1552 1.8887-6.4216 0-3.5886-1.511-6.6105-3.7774-8.8769 1.3221-.7555 2.4553-1.1332 3.7774-1.1332z"/>
  <path fill="#1F3946" d="M92.1686 80.081c-.1888-4.1552-.5666-7.9326-1.1332-10.9545v-.1889c-.1889-1.5109-.7555-3.0219-1.5109-4.7217v-.1889c-.7555-1.3221-2.0776-2.6442-3.3997-3.3996-.3778-.1889-.9444-.5667-1.511-.7555l-8.1214-2.8331-3.2108 6.2327-7.9325-2.833-7.9326 14.7319h-2.6442l-7.9325-14.7319-7.9326 2.833-3.2107-6.2327-7.9326 2.8331c-.5666.1888-1.1332.3777-1.5109.7555-1.511.7554-2.6442 2.0775-3.3997 3.3996l-.1889.3778c-.9443 1.5109-1.3221 3.2108-1.5109 4.7217v.1889c-.3778 3.0219-.7555 6.7993-1.1333 10.9544v1.511h9.6324c-.1889 1.511-.1889 3.2108-.3777 5.0995v1.511h54.0168v-1.511c-.1888-1.8887-.1888-3.5885-.3777-5.0995h9.6324l-.3778-1.6998zm-69.3153-1.3221c.1889-3.5885.5666-6.6105.9443-9.2547v-.3777c.1889-1.1332.5666-2.2664 1.3221-3.7774.5666-.9443 1.3221-1.6998 2.4553-2.4553.3778-.1889.7555-.3777 1.1333-.5666l5.6661-2.0776 2.0775 3.9663c-1.6998.9443-3.2108 2.2664-4.1551 3.9663-1.1332 2.0775-1.8887 4.1551-1.8887 6.2327 0 .3777-.3777 1.8887-.5666 4.1551h-6.9882v.1889zm9.2546 6.6104c.3778-6.7993 1.1332-10.1989 1.1332-10.1989v-.3778c0-1.5109.5667-3.2108 1.511-4.9106.9444-1.511 2.4553-2.8331 4.1551-3.3997l6.6105-2.4553 7.5548 14.1653h5.855l7.5548-14.1653 6.6104 2.2665c.5667.1888.9444.3777 1.3221.5666 1.1333.7554 2.0776 1.5109 2.8331 2.833v.1889c.7555 1.5109 1.3221 2.833 1.511 4.1551v.3778c.3777 3.0219.7554 6.7993 1.1332 10.9544H32.1079zm50.2395-6.6104c-.1889-1.6998-.3778-3.2108-.5666-4.7218v-.1888c-.1889-1.6999-.7555-3.5886-1.8887-5.2884v-.1889c-.9444-1.5109-2.2665-2.833-3.9663-3.7774l2.0776-3.9662 5.4772 2.0775c.3777.1889.7555.3778 1.1332.5666.9444.5666 1.6999 1.3221 2.4553 2.2665v.1888c.7555 1.3221 1.1332 2.4554 1.3221 3.5886v.3777c.3778 2.6442.7555 5.6661.9444 9.2547h-6.9882v-.1889z"/>
</svg>
