<svg xmlns="http://www.w3.org/2000/svg" width="121" height="120" fill="none">
  <defs/>
  <path fill="#1F3946" d="M92.2437 41.2325c-.0639-.689-.6351-1.2198-1.3269-1.2334-18.4889-.3651-31.0066-15.4266-31.13-15.578-.5455-.6692-1.5673-.6624-2.1076-.0008-.1243.152-12.642 15.2134-31.1311 15.5788-.6918.0136-1.2628.5444-1.327 1.2334L23.445 60.3242c-1.1526 12.3919 4.3908 24.6281 14.4673 31.9333l20.0225 14.5175c.4761.345 1.1203.345 1.5961 0l20.0225-14.5175c10.0759-7.3054 15.6188-19.5417 14.4662-31.9333l-1.7759-19.0917zM77.9572 90.0561L58.7328 103.995 39.5084 90.0561c-9.3021-6.7442-14.4197-18.0402-13.3557-29.4803l1.6654-17.9021c9.7986-.5137 17.8119-4.8015 22.8849-8.388 3.8878-2.7487 6.633-5.458 8.0298-6.9574 1.3968 1.4996 4.1418 4.209 8.0296 6.9574 5.073 3.5865 13.086 7.8743 22.8848 8.388l1.665 17.9021c1.064 11.4401-4.0534 22.7361-13.355 29.4803z"/>
  <path fill="#1F3946" d="M33.3154 61.9361l1.2956-13.9257c.0696-.7478-.4802-1.4101-1.2277-1.4798-.7474-.0698-1.4101.4802-1.4797 1.2277l-1.2957 13.926c-.5963 6.4111 1.1815 12.7958 5.0057 17.9768.4426.6001 1.2929.7353 1.9012.2866.6042-.4459.7322-1.297.2866-1.9012-3.4272-4.6434-5.0203-10.3647-4.486-16.1104z"/>
  <path fill="#1F3946" d="M103.009 32.3105c-.064-.6887-.635-1.2197-1.327-1.2333-12.9794-.2565-23.6584-5.9193-30.3314-10.6247-7.282-5.1351-11.5225-10.2848-11.5638-10.3356-.5428-.66676-1.5638-.66839-2.1082 0-.1666.2047-16.9574 20.4678-41.8952 20.9603-.6918.0136-1.2628.5443-1.327 1.2333L12.0859 57.793c-1.5292 16.443 5.7327 32.5045 19.1241 42.213l26.7251 19.377c.4761.345 1.1197.345 1.5961 0l26.725-19.377c13.3697-9.6938 20.6548-25.7444 19.1228-42.213l-2.37-25.4825zm-18.3489 65.494L58.7328 116.603 32.8061 97.8045c-12.5457-9.0957-19.4479-24.3307-18.0128-39.76l2.2596-24.2879c13.1491-.5846 23.9103-6.3323 30.6996-11.1321 5.4934-3.884 9.2611-7.7021 10.9803-9.5857 1.7196 1.8833 5.4869 5.7017 10.9804 9.5857 6.7891 4.7998 17.5502 10.5475 30.6998 11.1321l2.259 24.2879c1.435 15.4288-5.467 30.6637-18.0119 39.76zM13.595 97.8884c-4.49792 0-8.1573 3.6596-8.1573 8.1576s3.65938 8.157 8.1573 8.157c4.498 0 8.1574-3.659 8.1574-8.157s-3.6594-8.1576-8.1574-8.1576zm0 13.5956c-2.9986 0-5.43819-2.44-5.43819-5.438 0-2.999 2.43959-5.438 5.43819-5.438 2.9987 0 5.4383 2.439 5.4383 5.438 0 2.998-2.4396 5.438-5.4383 5.438zM110.124 0c-5.998 0-10.8769 4.87918-10.8769 10.8765 0 5.9972 4.8789 10.8764 10.8769 10.8764 5.997 0 10.876-4.8792 10.876-10.8764C121 4.87918 116.121 0 110.124 0zm0 19.0341c-4.498 0-8.158-3.6594-8.158-8.1574 0-4.49793 3.66-8.15732 8.158-8.15732 4.498 0 8.157 3.65939 8.157 8.15732 0 4.498-3.659 8.1574-8.157 8.1574zM15.6349 13.5948c1.1263 0 2.0394-.9131 2.0394-2.0394 0-1.1262-.9131-2.03929-2.0394-2.03929s-2.0393.91309-2.0393 2.03929c0 1.1263.913 2.0394 2.0393 2.0394zM2.03934 59.8206c1.12629 0 2.03933-.913 2.03933-2.0393 0-1.1263-.91304-2.0394-2.03933-2.0394C.91304 55.7419 0 56.655 0 57.7813s.91304 2.0393 2.03934 2.0393zM82.2521 14.9554c1.1263 0 2.0393-.9131 2.0393-2.0394 0-1.1262-.913-2.0393-2.0393-2.0393-1.1263 0-2.0393.9131-2.0393 2.0393 0 1.1263.913 2.0394 2.0393 2.0394zM114.883 48.9441c1.126 0 2.039-.913 2.039-2.0393 0-1.1263-.913-2.0393-2.039-2.0393-1.127 0-2.04.913-2.04 2.0393 0 1.1263.913 2.0393 2.04 2.0393zM114.881 96.5279c1.127 0 2.04-.9131 2.04-2.0396 0-1.1264-.913-2.0396-2.04-2.0396-1.126 0-2.039.9132-2.039 2.0396 0 1.1265.913 2.0396 2.039 2.0396zM87.6914 112.843c1.1265 0 2.0397-.914 2.0397-2.04s-.9132-2.04-2.0397-2.04c-1.1264 0-2.0396.914-2.0396 2.04s.9132 2.04 2.0396 2.04zM33.3092 116.922c1.1263 0 2.0393-.913 2.0393-2.04 0-1.126-.913-2.039-2.0393-2.039-1.1263 0-2.0394.913-2.0394 2.039 0 1.127.9131 2.04 2.0394 2.04z"/>
  <path fill="#1F3946" d="M73.3851 50.426l-3.5107 3.5107c-3.1906-2.7298-7.2035-4.2228-11.4453-4.2228-9.7282 0-17.6429 7.9145-17.6429 17.643 0 9.7281 7.9145 17.6429 17.6429 17.6429 11.5609 0 20.1128-11.038 17.01-22.3185l5.1005-5.1005c1.9727-1.9724 1.9727-5.1821 0-7.1548-1.9768-1.977-5.1775-1.9773-7.1545 0zm-14.956 31.8547c-8.2291 0-14.9238-6.6947-14.9238-14.9238 0-8.2292 6.6947-14.9239 14.9238-14.9239 3.515 0 6.8459 1.2108 9.5177 3.4312l-7.9879 7.988-1.6546-1.6543c-.9555-.9558-2.2258-1.4819-3.5772-1.4819-2.7956 0-5.0592 2.2623-5.0592 5.0589 0 1.3514.5264 2.622 1.4819 3.5772l7.8476 7.8477c.5308.531 1.3922.531 1.9227 0L73.1588 64.961c1.48 9.1017-5.5829 17.3197-14.7297 17.3197zm20.1878-26.6228l-18.658 18.6582-6.8864-6.8864c-.4419-.4418-.6855-1.0294-.6855-1.6546 0-1.2929 1.0466-2.3398 2.3401-2.3398.6248 0 1.2124.2437 1.6543.6855l2.616 2.6158c.5311.5308 1.3922.5308 1.9227 0L75.3075 52.349c.9147-.9145 2.3944-.9147 3.3094 0 .912.912.912 2.3966 0 3.3089z"/>
</svg>
