<svg xmlns="http://www.w3.org/2000/svg" width="62" height="46" fill="none">
  <defs/>
  <path fill="#B748B9" d="M61.3042 35.8907c-.125.9247-.7483 1.53-.7483 1.53l-9.1292 8.3012c-.2162.2016-.641.2888-1.0761.277L1.22004 45.848c-.65175 0-1.1801-.4642-1.1801-1.0369 0-.2881-.04026-.5776.00278-.7941.0204-.2802.1532-.5538.39513-.7576l9.02974-7.6073v-7.5809H1.21354c-.20813 0-.40362-.054-.5731-.1487-.10564-.0571-.20374-.1305-.29004-.2201-.44351-.4604-.48789-1.2324 0-1.6509l9.11719-7.6941v-7.4346H1.21675c-.54974 0-1.01144-.3745-1.14073-.8807-.18035-.59962-.03195-1.52711.36183-1.85886L9.79133.30318c.29677-.25001.69057-.33855 1.05587-.27116l.006-.00054s.2743-.02965.3994-.02961c2.8213.00077 35.2797.02013 41.0351.0101l5.8103-.0101c1.8032-.00313 1.3778-.00138 1.3778-.00138.1255.00013.2468.0179.3617.05098.411-.11286.8679.00666 1.1746.34948.2926.3269.3746.77413.2538 1.16822h.0537V35.8857l-.0154.005zm-2.3415-1.5838V20.3242l-8.2662 7.4478c-.2585.233-.5888.3283-.9058.2915a1.28582 1.28582 0 01-.1389.0077H11.8245v8.0567c0 .2009-.0415.391-.1155.5607-.0743.2127-.1979.4059-.3636.5455l-7.7463 6.4265h45.971l8.1272-7.0153H15.3542c-.6477 0-1.1728-.5234-1.1728-1.1692 0-.6457.5251-1.1692 1.1728-1.1692h43.6085zm0-17.1483V3.92562l-7.4946 6.94708c-.2872.0667-.5524.0638-.7885.0094-.126.0265-.2873.0407-.4929.0407H11.8245v8.1768c-.0035.221-.1624.475-.601.7986l-6.80205 5.8346H49.4027l6.9209-6.2358H15.3551c-.6482 0-1.1737-.5235-1.1737-1.1692s.5255-1.1692 1.1737-1.1692h43.6076zM10.7011 2.58154L3.57582 8.58441H49.7874c.0725 0 .1445.00651.2153.01898.8514-.75545 4.563-4.04219 7.0456-6.24035-1.3093.00244-1.8281.0034-4.4794.00831-5.8211.01078-11.6717.02157-17.1734.03163l-.7333.00134c-11.5805.02117-20.345.12773-23.9611.17722z"/>
</svg>
