<svg xmlns="http://www.w3.org/2000/svg" width="52" height="46" fill="none">
  <defs/>
  <path fill="#B81C1C" d="M50.0725 24.3624l-5.1316-.0518V3.47294h5.1835c.933 0 1.7105-.77752 1.7105-1.71055S51.0574.05183 50.1244.05183L36.2845 0h-.0519c-.2073 0-.4147.05183-.5702.10367-.2591.1555-.4147.25917-.622.41468L18.2977 17.3129H1.71055C.77752 17.3129 0 18.0904 0 19.0234c0 .933.77752 1.7106 1.71055 1.7106h5.1835v20.9931h-5.1835C.77752 41.7271 0 42.5046 0 43.4895s.77752 1.7106 1.71055 1.7106H18.9716c.4665 0 .8812-.2074 1.244-.5184l16.7945-16.8982h13.1143c.933 0 1.7105-.8293 1.7105-1.7624 0-.933-.8293-1.7105-1.7624-1.6587zm-13.8399.1037c-.4665 0-.8812.2073-1.1922.5183L18.2977 41.7271H10.367V20.734h8.6564c.4665 0 .8812-.2074 1.2441-.5184L37.0101 3.47294h4.4578V24.5179l-5.2353-.0518z"/>
</svg>
