<svg xmlns="http://www.w3.org/2000/svg" width="49" height="47" fill="none">
  <defs/>
  <path fill="#1D0AF4" d="M42.6614 7.18037h1.7444a.5484.5484 0 00.3878-.16067.54844.54844 0 00.1607-.38787V.54853a.54845.54845 0 00-.1607-.38787A.54838.54838 0 0044.4058 0H4.19791a.54853.54853 0 00-.54854.54854v6.08329a.54853.54853 0 00.54854.54854h2.09541L.00707 45.5342a.54831.54831 0 00.126.4459.54878.54878 0 00.42254.1904h3.61487a.5485.5485 0 00.54854-.3785l2.04605-6.3082H42.2061l2.0351 6.3082a.549.549 0 00.2102.2821c.0991.0684.218.1023.3383.0964h3.6149a.54883.54883 0 00.2324-.0484.54704.54704 0 00.1901-.142.54878.54878 0 00.1125-.209.54802.54802 0 00.0135-.2369L42.6614 7.18037zM4.74645 1.09708H43.8572v4.98621H4.74645V1.09708zM14.2362 16.4068l8.9466 5.5841-13.49951 8.3268 4.55291-13.9109zM9.18961 31.8975a.55102.55102 0 00.15358-.0658l14.88181-9.221 15.6279 9.6982 1.0258 3.1541H8.03767l1.15194-3.5655zm16.07769-9.9066l9.369-5.831 4.7174 14.5363-14.0864-8.7053zm-1.0423-.6473l-9.6597-6.012 2.6439-8.15123h14.5144l2.5616 7.89893-10.0602 6.2643zM3.76456 45.0789H1.19192L7.38491 7.18037h8.67239L3.76456 45.0789zm3.31866-6.6867l.59242-1.8266H41.1694a.51395.51395 0 00.0823 0l.5979 1.8431-34.76638-.0165zm38.09048 6.6867L32.881 7.18037h8.6669l6.193 37.89853h-2.5672z"/>
</svg>
