<svg xmlns="http://www.w3.org/2000/svg" width="43" height="45" fill="none">
  <defs/>
  <path fill="#B81C1C" d="M41.912 39.1848h-7.7107V4.60504c0-.61496-.5203-1.13531-1.1353-1.13531h-5.6766V1.1518c0-.33113-.1419-.66227-.4257-.8988-.2838-.23652-.615-.28382-.9461-.23652L9.74477 3.51703c-.52035.09461-.89879.56766-.89879 1.13532V39.2321H1.13531C.52035 39.2321 0 39.7525 0 40.3674c0 .615.52035 1.1353 1.13531 1.1353h8.75138l16.08361 3.406c.0946 0 .1419.0473.2365.0473.2838 0 .5204-.0946.7096-.2365.2838-.2366.4257-.5677.4257-.8988V41.55h14.5226c.6149 0 1.1353-.5203 1.1353-1.1353 0-.6149-.473-1.2299-1.088-1.2299zm-16.8878 3.1694L11.1639 39.374V5.55114l13.8603-2.9329V42.3542zm6.8592-3.1694h-4.5413V5.78766h4.5413V39.1848z"/>
  <path fill="#B81C1C" d="M21.9018 24.0945c.8988 0 1.6084-.7095 1.6084-1.6083s-.7096-1.6084-1.6084-1.6084-1.6083.7096-1.6083 1.6084.7095 1.6083 1.6083 1.6083z"/>
</svg>
