<svg xmlns="http://www.w3.org/2000/svg" width="63" height="44" fill="none">
  <defs/>
  <path fill="#2CBE4C" d="M61.5682.25806c-.1881-.00011-.3743.03486-.5481.10291s-.3316.16784-.4646.29367-.2385.27523-.3104.43965c-.0719.16443-.1089.34066-.1087.51861v9.4839h-2.8637V9.74193c-.0032-2.51435-1.0602-4.92483-2.9391-6.70275C52.4547 1.26127 49.9072.2611 47.25.25806h-31.5c-2.6572.00304-5.2047 1.00321-7.08358 2.78112-1.87893 1.77792-2.93593 4.1884-2.93915 6.70275v1.35487H2.86364V1.6129c0-.35933-.15086-.70394-.41937-.95802C2.17575.4008 1.81156.25806 1.43182.25806c-.37974 0-.74393.14274-1.01245.39682C.15085.90896 0 1.25357 0 1.6129v40.6452c0 .3593.15085.7039.41937.958s.63271.3968 1.01245.3968c.37974 0 .74393-.1427 1.01245-.3968.26851-.2541.41937-.5987.41937-.958v-9.4839h2.86363v6.7742c-.00011.1779.03685.3542.10876.5186.07192.1644.17738.3138.31036.4396.13298.1259.29087.2257.46463.2937.17377.0681.36001.103.54807.1029H55.8409c.1881.0001.3743-.0348.5481-.1029.1737-.068.3316-.1678.4646-.2937.133-.1258.2385-.2752.3104-.4396.0719-.1644.1088-.3407.1087-.5186v-6.7742h2.8637v9.4839c0 .3593.1508.7039.4193.958s.6327.3968 1.0125.3968c.3797 0 .7439-.1427 1.0124-.3968.2685-.2541.4194-.5987.4194-.958V1.6129c.0001-.17795-.0368-.35418-.1088-.51861-.0719-.16442-.1773-.31382-.3103-.43965S62.29.42902 62.1162.36097c-.1737-.06805-.36-.10302-.548-.10291zM2.86364 30.0645V13.8064h2.86363v16.2581H2.86364zM8.59091 9.74193c.00199-1.79605.75689-3.518 2.09909-4.788 1.3421-1.27 3.1619-1.98431 5.06-1.9862h14.3182V38.1935H8.59091V9.74193zM54.4091 38.1935H32.9318V2.96773H47.25c1.8981.00189 3.7179.7162 5.06 1.9862 1.3422 1.27 2.0971 2.99195 2.0991 4.788V38.1935zm2.8636-8.129V13.8064h2.8637v16.2581h-2.8637z"/>
  <path fill="#2CBE4C" d="M31.8626 20.4181c-.2332-.0001-.4641.0432-.6796.1276-.2155.0844-.4112.2081-.5761.3642-.1649.156-.2957.3412-.3849.5451-.0892.2039-.135.4224-.1348.6431v6.72c0 .4456.187.8729.52 1.1879.3329.3151.7845.4921 1.2554.4921.4709 0 .9225-.177 1.2555-.4921.3329-.315.52-.7423.52-1.1879v-6.72c.0001-.2207-.0457-.4392-.1349-.6431-.0892-.2039-.2199-.3891-.3848-.5451-.1649-.1561-.3607-.2798-.5762-.3642-.2155-.0844-.4464-.1277-.6796-.1276zM49.6173 20.4181c-.2332-.0001-.4642.0432-.6797.1276-.2154.0844-.4112.2081-.5761.3642-.1649.156-.2957.3412-.3848.5451-.0892.2039-.135.4224-.1349.6431v6.72c0 .4456.1871.8729.52 1.1879.333.3151.7846.4921 1.2555.4921.4708 0 .9224-.177 1.2554-.4921.333-.315.52-.7423.52-1.1879v-6.72c.0001-.2207-.0457-.4392-.1349-.6431-.0891-.2039-.2199-.3891-.3848-.5451-.1649-.1561-.3607-.2798-.5761-.3642-.2155-.0844-.4465-.1277-.6796-.1276z"/>
</svg>
