<svg xmlns="http://www.w3.org/2000/svg" width="46" height="48" fill="none">
  <defs/>
  <path fill="#2CBE4C" d="M5.15957 9.466h5.01183v3.0749H8.08909c-.4134 0-.7479.3348-.7479.7479v5.3069c0 .413.3345.7479.7479.7479h3.34581v3.0869c0 .413.3345.7479.7479.7479h3.6775v8.0845c0 .2052.084.4013.233.5427l5.9759 5.6673v6.3331h1.4958v-6.3332l5.9752-5.6672a.74803.74803 0 00.2329-.5427v-8.0845h3.6775c.4134 0 .7479-.3349.7479-.7479v-3.0869h3.3465c.4134 0 .7479-.3349.7479-.7479v-5.3069c0-.4131-.3345-.7479-.7479-.7479h-2.0823V9.466h5.0119c.2775 0 .5317-.15338.661-.39842L45.5587.69897 44.2367 0l-4.2128 7.9702H5.61021L1.39668 0 .07471.69897l4.42387 8.36861c.12927.24504.38344.39842.66099.39842zm3.67742 4.5707h2.95071v3.8111H8.83699v-3.8111zm23.51291 3.8111h-2.6162v-3.8111h2.6162v3.8111zm-4.112 0H25.621v-3.8111h2.6169v3.8111zm-4.1127 0h-2.617v-3.8111h2.617v3.8111zm-4.1128 0h-2.6162v-3.8111h2.6162v3.8111zm-4.112 0h-2.6169v-3.8111h2.6169v3.8111zm12.3769 13.0937l-5.4602 5.1787-5.461-5.1787v-7.7631h10.9212v7.7631zm4.4254-9.2589h-19.772v-2.339h19.772v2.339zm4.0944-3.8348h-2.9514v-3.8111h2.9514v3.8111zM33.9669 9.466v3.0749H11.6672V9.466h22.2997z"/>
  <path fill="#2CBE4C" d="M26.8288 25.3746H25.333v4.6229h1.4958v-4.6229zM45.6337 45.9714H0v1.4958h45.6337v-1.4958zM32.5873 42.7758c-.5967 0-1.0824.4853-1.0824 1.082 0 .5942.4857 1.0777 1.0824 1.0777s1.0824-.4835 1.0824-1.0777c0-.5967-.4857-1.082-1.0824-1.082zm0 1.4958c-.2279 0-.4134-.1856-.4134-.4138 0-.2344.1819-.4181.4134-.4181.2315 0 .4134.1837.4134.4181 0 .2282-.1855.4138-.4134.4138zM34.2153 41.1477c0 .5942.4857 1.0777 1.0824 1.0777.5968 0 1.0817-.4835 1.0817-1.0777 0-.5967-.4849-1.0824-1.0817-1.0824-.5967 0-1.0824.4857-1.0824 1.0824zm1.4958 0c0 .2279-.1855.4134-.4134.4134-.2286 0-.4141-.1855-.4141-.4134 0-.2304.1855-.4181.4141-.4181.2279 0 .4134.1877.4134.4181zM29.043 38.8993c0 .5942.4857 1.0773 1.0824 1.0773s1.0824-.4831 1.0824-1.0773c0-.5967-.4857-1.0824-1.0824-1.0824s-1.0824.4857-1.0824 1.0824zm1.4958 0c0 .2279-.1855.4134-.4134.4134s-.4134-.1855-.4134-.4134c0-.2348.1819-.4185.4134-.4185.2315 0 .4134.1837.4134.4185zM24.9438 42.2057c0 .5942.4857 1.0773 1.0825 1.0773.5967 0 1.0824-.4831 1.0824-1.0773 0-.5967-.4857-1.0824-1.0824-1.0824-.5968 0-1.0825.4857-1.0825 1.0824zm1.4959 0c0 .2279-.1856.4134-.4134.4134-.2279 0-.4134-.1855-.4134-.4134 0-.2348.1818-.4185.4134-.4185.2315 0 .4134.1837.4134.4185zM9.60927 41.1233c-.59672 0-1.08241.4857-1.08241 1.0824 0 .5942.48569 1.0773 1.08241 1.0773.59673 0 1.08243-.4831 1.08243-1.0773 0-.5967-.4857-1.0824-1.08243-1.0824zm0 1.4958c-.22788 0-.41339-.1855-.41339-.4134 0-.2348.18186-.4185.41339-.4185.23153 0 .41343.1837.41343.4185 0 .2279-.18556.4134-.41343.4134zM9.60927 34.5507c-.59672 0-1.08241.4857-1.08241 1.0824 0 .5941.48569 1.0773 1.08241 1.0773.59673 0 1.08243-.4832 1.08243-1.0773 0-.5967-.4857-1.0824-1.08243-1.0824zm0 1.4958c-.22788 0-.41339-.1856-.41339-.4134 0-.2348.18186-.4185.41339-.4185.23153 0 .41343.1837.41343.4185 0 .2278-.18556.4134-.41343.4134zM4.42139 39.7385c0 .5942.48569 1.0777 1.08241 1.0777.59671 0 1.08241-.4835 1.08241-1.0777 0-.5967-.4857-1.082-1.08241-1.082-.59672 0-1.08241.4853-1.08241 1.082zm1.4958 0c0 .2283-.18551.4138-.41339.4138-.22788 0-.41339-.1855-.41339-.4138 0-.2304.18551-.4181.41339-.4181.22788 0 .41339.1877.41339.4181zM12.6445 39.7498c0 .5941.4857 1.0776 1.0824 1.0776.5968 0 1.0825-.4835 1.0825-1.0776 0-.5967-.4857-1.0824-1.0825-1.0824-.5967 0-1.0824.4857-1.0824 1.0824zm1.4958 0c0 .2278-.1855.4134-.4134.4134-.2278 0-.4133-.1856-.4133-.4134 0-.2345.1818-.4182.4133-.4182.2316 0 .4134.1837.4134.4182z"/>
</svg>
